<?xml version="1.0" encoding="utf-8"?>
<!-- Generator: Adobe Illustrator 22.1.0, SVG Export Plug-In . SVG Version: 6.00 Build 0)  -->
<svg version="1.1" id="Layer_1" xmlns="http://www.w3.org/2000/svg" xmlns:xlink="http://www.w3.org/1999/xlink" x="0px" y="0px"
	 viewBox="0 0 291.5 191.092" enable-background="new 0 0 291.5 191.092" xml:space="preserve">
<g>
	<g>
		<path fill="#00878F" d="M291.333,69.007C291.333,30.927,259.197,0,219.808,0c-3.627,0-7.354,0.201-10.981,0.806
			c-30.625,4.332-51.176,26.394-62.66,43.318C134.682,27.2,114.131,5.138,83.506,0.806C79.88,0.302,76.152,0,72.526,0
			C33.035,0,1,30.927,1,69.007s32.136,69.007,71.526,69.007c3.627,0,7.354-0.201,11.081-0.806
			c30.625-4.433,51.176-26.495,62.66-43.419c11.484,16.924,32.035,38.986,62.66,43.419c3.627,0.504,7.354,0.806,11.081,0.806
			C259.197,138.014,291.333,107.087,291.333,69.007 M79.98,113.031c-2.519,0.403-5.037,0.504-7.556,0.504
			c-25.991,0-47.046-20.047-47.046-44.527c0-24.581,21.155-44.527,47.146-44.527c2.519,0,5.037,0.201,7.556,0.504
			c28.912,4.13,46.542,32.64,52.586,44.023C126.522,80.491,108.792,108.9,79.98,113.031 M159.666,69.007
			c5.944-11.384,23.674-39.893,52.586-44.023c2.519-0.302,5.037-0.504,7.556-0.504c25.991,0,47.046,20.047,47.046,44.527
			c0,24.581-21.155,44.527-47.046,44.527c-2.518,0-5.037-0.201-7.556-0.504C183.34,108.9,165.61,80.391,159.666,69.007"/>
		<path fill="#00878F" d="M52.68,62.257h43.016v13.801H52.68V62.257z M224.543,76.16h14.507V62.257h-14.507V47.751H210.64v14.507
			h-14.507V76.16h14.507v14.507h13.902L224.543,76.16z M277.733,11.787c0-3.526,2.821-6.447,6.246-6.447
			c3.526,0,6.347,2.921,6.347,6.447c0,3.727-2.821,6.447-6.347,6.447C280.554,18.234,277.733,15.313,277.733,11.787z
			 M289.218,11.787c0-2.921-2.216-5.44-5.238-5.44s-5.138,2.216-5.138,5.44c0,3.324,2.418,5.44,5.138,5.44
			C287.001,17.227,289.218,15.111,289.218,11.787z M280.957,7.757h3.123c2.418,0,3.324,1.007,3.324,2.72
			c0,1.108-0.504,1.914-1.511,2.317l1.511,3.022h-2.216l-1.108-2.72h-1.108v2.72h-2.015L280.957,7.757L280.957,7.757z
			 M283.879,11.686c0.907,0,1.41-0.302,1.41-1.31c0-0.907-0.302-1.209-1.41-1.209h-1.007v2.619L283.879,11.686z"/>
	</g>
	<g>
		<path fill="#00878F" d="M1,190.439l13.249-42.221h11.757l13.446,42.221H28.345l-2.34-8.638H13.861l-2.143,8.638L1,190.439
			L1,190.439z M19.705,158.223l-3.83,15.46h7.987L19.705,158.223z"/>
		<path fill="#00878F" d="M46.145,148.219h17.018c11.691,0,16.108,5.975,16.108,14.096c0,5.781-2.337,10.198-6.949,12.664
			l8.247,15.46H68.229l-6.364-13.38h-5.262v13.38H46.145L46.145,148.219L46.145,148.219z M68.166,162.38
			c0-3.767-1.364-5.65-6.237-5.65h-5.325v11.951h5.521C65.763,168.681,68.166,167.057,68.166,162.38z"/>
		<path fill="#00878F" d="M87.722,148.219h13.834c15.783,0,21.045,7.473,21.045,20.722c0,10.004-3.053,21.501-20.979,21.501h-13.9
			L87.722,148.219L87.722,148.219z M98.18,156.73v25.074h3.961c8.64,0,9.288-5.262,9.288-12.407c0-8.247-0.845-12.664-10.198-12.664
			H98.18V156.73z"/>
		<path fill="#00878F" d="M153.524,148.219h10.067v27.736c0,12.47-9.548,15.135-17.016,15.135c-7.211,0-16.433-2.403-16.433-15.2
			v-27.671H140.6v25.724c0,7.014,2.468,8.638,6.432,8.638c4.742,0,6.495-2.143,6.495-8.575v-25.787H153.524z"/>
		<path fill="#00878F" d="M172.947,181.801h10.912v-24.943h-10.912v-8.64h32.347v8.64h-10.978v24.943h10.978v8.638h-32.347V181.801z
			"/>
		<path fill="#00878F" d="M223.813,190.439h-9.873v-42.221h11.368l13.703,25.333v-25.333h9.742v42.221h-10.587l-14.421-27.02
			L223.813,190.439z"/>
		<path fill="#00878F" d="M291.5,169.331c0,12.211-4.48,21.761-18.057,21.761c-12.147,0-17.734-7.342-17.734-21.307
			c0-12.732,4.871-22.151,17.669-22.151C285.391,147.634,291.5,153.221,291.5,169.331z M280.394,169.331
			c0-10.327-0.845-13.186-7.014-13.186c-5.587,0-6.56,3.313-6.56,13.64c0,8.509,0.585,12.795,6.626,12.795
			C279.549,182.58,280.394,179.073,280.394,169.331z"/>
	</g>
</g>
</svg>
