<?xml version="1.0" encoding="utf-8"?>
<!-- Generator: Adobe Illustrator 22.1.0, SVG Export Plug-In . SVG Version: 6.00 Build 0)  -->
<svg version="1.1" id="Layer_1" xmlns="http://www.w3.org/2000/svg" xmlns:xlink="http://www.w3.org/1999/xlink" x="0px" y="0px"
	 viewBox="0 0 378 378" enable-background="new 0 0 378 378" xml:space="preserve">
<g>
	<path fill="#563D7C" d="M0,329.26C0,356.181,21.822,378,48.74,378h280.519C356.181,378,378,356.178,378,329.26V48.741
		C378,21.819,356.178,0,329.26,0H48.741C21.819,0,0,21.822,0,48.74v280.519V329.26z"/>
	<path fill="#FFFFFF" d="M156.749,167.203v-53.53h47.119c4.489,0,8.815,0.374,12.982,1.122c4.167,0.747,7.854,2.082,11.059,4.006
		c3.204,1.924,5.769,4.595,7.693,8.013c1.922,3.42,2.885,7.801,2.885,13.141c0,9.617-2.885,16.563-8.656,20.836
		c-5.769,4.275-13.141,6.411-22.117,6.411H156.749L156.749,167.203z M106.423,74.566v228.867h110.908
		c10.258,0,20.248-1.282,29.971-3.846c9.723-2.565,18.377-6.518,25.964-11.86c7.585-5.342,13.623-12.235,18.11-20.675
		c4.489-8.441,6.732-18.432,6.732-29.971c0-14.318-3.473-26.552-10.417-36.701c-6.946-10.151-17.471-17.257-31.575-21.317
		c10.258-4.914,18.005-11.219,23.241-18.912c5.234-7.693,7.852-17.308,7.852-28.849c0-10.684-1.763-19.659-5.289-26.925
		c-3.526-7.265-8.495-13.088-14.906-17.469c-6.41-4.381-14.103-7.533-23.079-9.456c-8.975-1.924-18.912-2.885-29.81-2.885
		L106.423,74.566L106.423,74.566z M156.749,264.327v-62.826h54.811c10.899,0,19.66,2.51,26.286,7.533
		c6.624,5.022,9.937,13.409,9.937,25.162c0,5.984-1.016,10.898-3.046,14.745s-4.755,6.893-8.174,9.135
		c-3.418,2.244-7.372,3.846-11.86,4.809c-4.489,0.96-9.189,1.441-14.104,1.441H156.749L156.749,264.327z"/>
</g>
</svg>
