<?xml version="1.0" encoding="utf-8"?>
<!-- Generator: Adobe Illustrator 22.1.0, SVG Export Plug-In . SVG Version: 6.00 Build 0)  -->
<svg version="1.1" id="Layer_1" xmlns="http://www.w3.org/2000/svg" xmlns:xlink="http://www.w3.org/1999/xlink" x="0px" y="0px"
	 viewBox="0 0.39 121.5 89.61" enable-background="new 0 0.39 121.5 89.61" xml:space="preserve">
<g>
	<g>
		<g>
			<defs>
				<rect id="SVGID_1_" y="0.39" width="121.5" height="89.61"/>
			</defs>
			<clipPath id="SVGID_2_">
				<use xlink:href="#SVGID_1_"  overflow="visible"/>
			</clipPath>
			<path clip-path="url(#SVGID_2_)" fill="#DA1F26" d="M121.5,43.195v4c-0.038,0.218-0.086,0.431-0.111,0.646
				c-0.207,1.74-0.341,3.491-0.627,5.218c-0.934,5.613-2.953,10.83-5.953,15.654c-4.556,7.324-10.715,12.909-18.455,16.723
				c-4.5,2.217-9.248,3.627-14.235,4.201c-1.101,0.127-2.199,0.241-3.3,0.362H36.135c-0.215-0.04-0.429-0.104-0.646-0.117
				c-4.304-0.271-8.445-1.252-12.392-2.979c-8.593-3.76-15-9.854-19.194-18.241c-1.86-3.724-3.044-7.663-3.545-11.802
				C0.237,55.861,0.119,54.863,0,53.866c0-1.293,0-2.589,0-3.882c0.041-0.215,0.104-0.43,0.117-0.646
				c0.223-3.729,0.988-7.351,2.335-10.83c3.625-9.364,9.944-16.308,18.924-20.804c4.659-2.333,9.625-3.559,14.819-3.831
				c2.543-0.132,5.084,0.01,7.612,0.349c0.229,0.031,0.559-0.071,0.718-0.234c3.635-3.713,7.774-6.728,12.441-9.015
				c4.527-2.217,9.291-3.645,14.306-4.218c1.181-0.135,2.363-0.246,3.545-0.368h3.64c0.237,0.037,0.478,0.079,0.715,0.107
				c1.804,0.21,3.616,0.342,5.401,0.641c5.572,0.935,10.76,2.935,15.56,5.906c7.36,4.556,12.97,10.723,16.802,18.486
				c2.221,4.504,3.633,9.253,4.205,14.246C121.268,40.915,121.379,42.056,121.5,43.195 M53.565,17.312
				c0.073,0.097,0.091,0.142,0.122,0.156c2.507,1.229,4.878,2.678,7.139,4.317c0.142,0.102,0.494,0.06,0.666-0.049
				c6.188-3.921,12.897-5.274,20.102-3.995c7.061,1.252,12.807,4.779,17.197,10.415c4.971,6.377,6.866,13.588,5.494,21.61
				c-0.92,5.377-3.074,10.201-6.735,14.242c-6.68,7.367-15.045,10.414-24.892,9.124c-6.062-0.794-11.295-3.409-15.626-7.786
				c-5.559-5.615-11.154-11.193-16.729-16.793c-0.743-0.746-1.57-1.346-2.64-1.476c-1.869-0.23-3.565,0.704-4.372,2.383
				c-0.72,1.499-0.627,3.188,0.935,4.725c6.215,6.102,12.375,12.258,18.583,18.365c1.062,1.045,2.204,2.027,3.409,2.901
				c4.535,3.293,9.648,5.113,15.184,5.847c4.347,0.574,8.658,0.451,12.938-0.511c8.162-1.833,14.924-5.999,20.248-12.428
				c4.396-5.312,7.057-11.416,7.982-18.269c0.533-3.938,0.43-7.856-0.332-11.749c-1.234-6.33-3.912-11.994-8.203-16.815
				C95.848,12.334,85.548,8.23,73.291,9.146c-4.715,0.353-9.175,1.737-13.372,3.935C57.66,14.262,55.541,15.656,53.565,17.312
				 M50.566,81.488c-0.222-0.205-0.363-0.338-0.504-0.471c-2.541-2.398-5.096-4.783-7.607-7.213
				c-0.486-0.47-0.933-0.699-1.621-0.683c-2.543,0.062-5.088,0.072-7.594-0.493C20.78,69.81,13.545,56.263,18.137,44.343
				c3.622-9.399,13.649-15.123,23.537-13.358c4.432,0.791,8.322,2.667,11.515,5.96c3.894,4.021,7.904,7.926,11.84,11.904
				c0.896,0.906,1.925,1.319,3.166,1.143c1.604-0.229,2.881-0.993,3.461-2.566c0.568-1.548,0.293-3.014-0.879-4.201
				c-4.131-4.185-8.164-8.475-12.462-12.481c-8.336-7.775-18.166-10.087-29.038-6.781C14.654,28.404,6.096,43.504,9.437,58.404
				C12.482,71.98,24.355,81.508,38.248,81.52c3.879,0.004,7.759,0.002,11.638,0C50.078,81.52,50.27,81.503,50.566,81.488"/>
		</g>
	</g>
</g>
</svg>
