<?xml version="1.0" encoding="utf-8"?>
<!-- Generator: Adobe Illustrator 22.1.0, SVG Export Plug-In . SVG Version: 6.00 Build 0)  -->
<svg version="1.1" id="Layer_1" xmlns="http://www.w3.org/2000/svg" xmlns:xlink="http://www.w3.org/1999/xlink" x="0px" y="0px"
	 viewBox="0 0 297.45 419.851" enable-background="new 0 0 297.45 419.851" xml:space="preserve">
<g>
	<path fill="#131313" d="M233.093,15.534h-24.688l25.674,27.859v13.261h-52.882V41.127h25.669l-25.669-27.86v-13.28h51.896V15.534
		L233.093,15.534z M170.715,15.534h-24.688L171.7,43.393v13.261h-52.882V41.127h25.672l-25.672-27.86v-13.28h51.897L170.715,15.534
		L170.715,15.534z M108.947,16.165h-26.64v24.313h26.64v16.176H63.373V-0.012h45.574V16.165z"/>
</g>
<polygon fill="#1572B6" points="27.071,386.143 0,82.523 297.45,82.523 270.354,386.094 148.543,419.863 "/>
<polygon fill="#33A9DC" points="148.727,394.052 247.154,366.764 270.311,107.349 148.727,107.349 "/>
<g>
	<polygon fill="#FFFFFF" points="148.726,217.349 198.001,217.349 201.404,179.217 148.726,179.217 148.726,141.978 
		148.855,141.978 242.101,141.978 241.208,151.969 232.056,254.585 148.726,254.585 	"/>
	<polygon fill="#EBEBEB" points="148.949,314.057 148.786,314.103 107.314,302.904 104.662,273.206 84.511,273.206 67.283,273.206 
		72.499,331.673 148.777,352.849 148.949,352.801 	"/>
	<polygon fill="#FFFFFF" points="194.836,253.009 190.352,302.879 148.82,314.089 148.82,352.831 225.159,331.673 225.719,325.383 
		232.197,253.009 	"/>
	<polygon fill="#EBEBEB" points="148.855,141.978 148.855,165.106 148.855,179.125 148.855,179.217 59.027,179.217 59.027,179.217 
		58.908,179.217 58.161,170.847 56.464,151.969 55.574,141.978 	"/>
	<polygon fill="#EBEBEB" points="148.726,217.353 148.726,240.482 148.726,254.499 148.726,254.591 107.898,254.591 
		107.898,254.591 107.779,254.591 107.033,246.221 105.335,227.344 104.445,217.353 	"/>
</g>
</svg>
