<?xml version="1.0" encoding="utf-8"?>
<!-- Generator: Adobe Illustrator 22.1.0, SVG Export Plug-In . SVG Version: 6.00 Build 0)  -->
<svg version="1.1" id="Layer_1" xmlns="http://www.w3.org/2000/svg" xmlns:xlink="http://www.w3.org/1999/xlink" x="0px" y="0px"
	 viewBox="0 0 389.273 162.553" enable-background="new 0 0 389.273 162.553" xml:space="preserve">
<g>
	<path fill="#3C3014" d="M289.236,14.053c0-8.323,6.353-13.799,14.456-13.799c8.105,0,14.458,5.476,14.458,13.799
		c0,8.105-6.353,13.8-14.458,13.8C295.589,27.853,289.236,22.158,289.236,14.053z"/>
</g>
<g id="_x37_6ZRdc.tif">
	<g>
		<path fill="#F0502A" d="M82.132,0c3.996,0.797,6.657,3.532,9.389,6.271c22.236,22.293,44.513,44.544,66.777,66.809
			c5.495,5.495,5.515,11.306,0.065,16.756c-22.314,22.315-44.639,44.62-66.93,66.958c-2.371,2.376-4.701,4.734-8.017,5.759
			c-1.426,0-2.852,0-4.278,0c-3.455-1.237-5.867-3.826-8.374-6.337C49.023,134.44,27.267,112.679,5.483,90.945
			C3.145,88.613,0.871,86.301,0,82.988c0-1.283,0-2.567,0-3.85c1.158-3.496,3.688-5.958,6.215-8.474
			c14.648-14.588,29.25-29.221,43.87-43.836c0.53-0.53,1.086-1.035,1.699-1.618c5.908,5.927,11.663,11.662,17.34,17.474
			c0.444,0.455,0.614,1.517,0.445,2.178c-1.428,5.603,0.585,11.181,5.452,14.082c1.471,0.877,1.823,1.842,1.816,3.414
			c-0.053,13.187-0.052,26.375-0.002,39.563c0.006,1.628-0.316,2.657-1.875,3.596c-4.844,2.918-6.896,8.545-5.369,13.883
			c1.543,5.391,6.248,9.019,11.819,9.114c5.461,0.093,10.293-3.348,12.019-8.559c1.771-5.345-0.015-10.911-4.697-14.117
			c-1.162-0.795-1.526-1.629-1.521-2.969c0.042-13.188,0.023-26.375,0.031-39.563c0-0.602,0.089-1.204,0.163-2.157
			c0.773,0.71,1.295,1.157,1.781,1.641c4.34,4.33,8.64,8.701,13.03,12.979c1.129,1.1,1.511,2.011,1.06,3.671
			c-1.429,5.261,1.189,10.939,6.001,13.647c4.819,2.712,10.826,1.943,14.816-1.895c4-3.849,4.998-9.877,2.438-14.735
			c-2.602-4.938-8.057-7.616-13.429-6.477c-1.341,0.284-2.215-0.001-3.181-0.988c-4.986-5.094-10.026-10.136-15.121-15.121
			c-0.99-0.969-1.24-1.841-0.983-3.179c1.672-8.704-5.902-16.26-14.553-14.53c-1.269,0.254-2.11-0.021-3.013-0.939
			c-5.251-5.333-10.565-10.605-15.852-15.903c-0.441-0.442-0.845-0.921-1.373-1.501c3.92-3.899,7.803-7.668,11.573-11.545
			c2.7-2.776,5.397-5.479,9.395-6.277C80.706,0,81.419,0,82.132,0z"/>
		<path fill="#3C3014" d="M389.273,115.071c-5.756,1.769-11.435,3.866-17.288,5.215c-6.01,1.385-12.191,1.149-18.241-0.212
			c-8.892-1.999-14.082-8.022-14.866-17.48c-0.388-4.676-0.395-9.39-0.42-14.088c-0.057-10.622-0.07-21.244,0.027-31.865
			c0.019-2.112-0.497-2.948-2.732-2.815c-3.034,0.181-6.087,0.045-9.231,0.045c0-4.684,0-9.15,0-13.801
			c0.725-0.127,1.468-0.269,2.216-0.386c9.339-1.461,14.8-7.027,16.898-16.072c0.562-2.422,0.83-4.911,1.37-7.339
			c0.129-0.578,0.795-1.47,1.232-1.481c4.474-0.11,8.953-0.067,13.73-0.067c0,0.965,0,1.72,0,2.475
			c0,6.131,0.072,12.263-0.041,18.391c-0.037,2.005,0.488,2.746,2.61,2.699c5.985-0.132,11.975-0.046,17.963-0.046
			c0.767,0,1.535,0,2.434,0c0,5.273,0,10.302,0,15.538c-7.538,0-15.063,0-22.852,0c-0.044,0.937-0.109,1.684-0.11,2.431
			c-0.006,11.834-0.017,23.667,0.011,35.501c0.004,1.49,0.132,2.993,0.362,4.465c0.742,4.77,3.459,7.411,8.46,7.276
			c4.709-0.127,9.397-1.022,14.474-1.625c0.906,2.917,1.979,6.418,3.09,9.907C388.594,112.446,389.273,114.643,389.273,115.071z"/>
		<path fill="#3C3014" d="M202.459,122.506c-5.083-2.399-7.207-6.063-6.912-11.059c0.219-3.701,2.262-6.501,4.698-9.098
			c2.874-3.064,5.692-6.181,8.547-9.288c0.093,0.065-0.283-0.226-0.684-0.476c-7.717-4.815-11.418-11.963-11.662-20.866
			c-0.097-3.52,0.129-7.186,1.02-10.571c3.033-11.524,11.298-17.539,22.463-19.991c8.527-1.873,17.104-1.713,25.645,0.14
			c0.824,0.179,1.691,0.213,2.539,0.215c8.555,0.015,17.109,0.009,25.664,0.009c0.773,0,1.546,0,2.476,0c0,4.446,0,8.742,0,13.229
			c-4.553,0.371-9.05,0.738-13.24,1.079c1.486,3.552,3.422,6.813,4.222,10.333c3.107,13.668-4.153,25.927-17.765,30.428
			c-8.526,2.819-17.213,2.816-25.952,1.098c-0.271-0.053-0.546-0.088-0.957-0.154c-1.601,2.572-3.194,5.132-4.976,7.995
			c3.383,0.214,6.346,0.347,9.298,0.6c9.643,0.826,19.287,1.655,28.92,2.583c1.822,0.176,3.627,0.722,5.395,1.247
			c9.254,2.748,13.258,7.685,14.109,17.298c0.994,11.227-4.569,20.466-15.37,25.405c-6.902,3.156-14.234,4.419-21.761,4.766
			c-10.07,0.464-20.072,0.154-29.853-2.626c-1.092-0.31-2.15-0.744-3.213-1.148c-13.791-5.244-14.112-20.132-6.018-28.122
			C200.054,124.583,201.101,123.722,202.459,122.506z M233.241,55.437c-10.359,0.005-16.029,6.401-14.641,16.648
			c0.639,4.716,3.136,8.269,7.865,9.328c3.257,0.729,6.808,1.035,10.089,0.564c5.22-0.748,9.019-3.809,10.326-9.205
			C249.3,62.788,243.477,55.432,233.241,55.437z M224.224,127.095c-0.001,0.019-0.003,0.039-0.004,0.058
			c-2.2-0.158-4.399-0.368-6.602-0.442c-0.624-0.021-1.525,0.155-1.845,0.582c-1.103,1.469-2.224,2.995-2.937,4.67
			c-1.519,3.571-0.304,6.632,3.157,8.399c1.066,0.544,2.22,1.006,3.387,1.248c8.331,1.733,16.699,1.701,24.983-0.123
			c2.115-0.466,4.325-1.657,5.91-3.137c3.485-3.256,2.097-7.944-2.471-9.158c-0.89-0.236-1.809-0.417-2.725-0.49
			C238.127,128.148,231.175,127.627,224.224,127.095z"/>
		<path fill="#3C3014" d="M283.702,120.637c0-4.043,0-7.954,0-12.078c2.612-0.375,5.191-0.803,7.785-1.099
			c1.718-0.196,2.491-0.946,2.486-2.752c-0.039-15.322-0.035-30.644-0.006-45.965c0.003-1.76-0.721-2.758-2.388-3.302
			c-2.628-0.857-5.214-1.846-7.976-2.836c0.58-4.219,1.149-8.352,1.72-12.505c10.78,0,21.367,0,32.154,0c0,0.986,0,1.83,0,2.674
			c0,20.168-0.001,40.336,0.001,60.503c0,3.697,0.002,3.712,3.625,4.298c1.686,0.273,3.377,0.539,5.077,0.685
			c1.182,0.102,1.805,0.44,1.77,1.791c-0.08,3.062-0.059,6.129-0.008,9.192c0.019,1.156-0.319,1.663-1.567,1.66
			c-13.968-0.036-27.935-0.031-41.903-0.046C284.273,120.857,284.072,120.746,283.702,120.637z"/>
	</g>
</g>
</svg>
