<?xml version="1.0" encoding="utf-8"?>
<!-- Generator: Adobe Illustrator 22.1.0, SVG Export Plug-In . SVG Version: 6.00 Build 0)  -->
<svg version="1.1" id="Layer_1" xmlns="http://www.w3.org/2000/svg" xmlns:xlink="http://www.w3.org/1999/xlink" x="0px" y="0px"
	 viewBox="0 0 297.45 419.851" enable-background="new 0 0 297.45 419.851" xml:space="preserve">
<g>
	<polygon fill="#E44F26" points="27.07,386.131 0,82.511 297.45,82.511 270.352,386.082 148.543,419.851 	"/>
	<polygon fill="#F1662A" points="148.725,394.04 247.152,366.752 270.31,107.336 148.725,107.336 	"/>
	<polygon fill="#EBEBEB" points="148.725,219.945 99.45,219.945 96.046,181.813 148.725,181.813 148.725,144.574 148.596,144.574 
		55.35,144.574 56.242,154.565 65.394,257.181 148.725,257.181 	"/>
	<polygon fill="#EBEBEB" points="148.725,316.653 148.562,316.699 107.09,305.5 104.438,275.802 84.287,275.802 67.058,275.802 
		72.275,334.269 148.553,355.445 148.725,355.397 	"/>
	<path fill="#010101" d="M27.675,0h18.924v18.696H63.91V0h18.925v56.618H63.911V37.66h-17.31v18.958H27.675V0L27.675,0z"/>
	<path fill="#010101" d="M107.719,18.775h-16.66V0h52.252v18.775h-16.667v37.843H107.72V18.775H107.719z"/>
	<path fill="#010101" d="M151.604,0h19.733l12.137,19.894L195.601,0h19.739v56.618h-18.846V28.555l-13.021,20.13h-0.325
		l-13.028-20.13v28.063h-18.517L151.604,0L151.604,0z"/>
	<path fill="#010101" d="M224.758,0h18.929v37.903h26.612v18.714h-45.542V0H224.758z"/>
	<polygon fill="#FFFFFF" points="148.596,219.945 148.596,257.181 194.45,257.181 190.128,305.475 148.596,316.685 148.596,355.427 
		224.936,334.269 225.495,327.979 234.246,229.944 235.154,219.945 225.12,219.945 	"/>
	<polygon fill="#FFFFFF" points="148.596,144.574 148.596,167.702 148.596,181.721 148.596,181.813 238.423,181.813 
		238.423,181.813 238.543,181.813 239.29,173.443 240.986,154.565 241.877,144.574 	"/>
</g>
</svg>
