<?xml version="1.0" encoding="utf-8"?>
<!-- Generator: Adobe Illustrator 22.1.0, SVG Export Plug-In . SVG Version: 6.00 Build 0)  -->
<svg version="1.1" id="Layer_1" xmlns="http://www.w3.org/2000/svg" xmlns:xlink="http://www.w3.org/1999/xlink" x="0px" y="0px"
	 viewBox="0 0 288 280.6" style="enable-background:new 0 0 288 280.6;" xml:space="preserve">
<style type="text/css">
	.st0{fill:url(#SVGID_1_);}
	.st1{fill:#FF408C;}
</style>
<radialGradient id="SVGID_1_" cx="-184.0216" cy="-40.6722" r="8.749714e-02" gradientTransform="matrix(2291.6716 0 0 -2218.7549 421816.0938 -90172.1328)" gradientUnits="userSpaceOnUse">
	<stop  offset="0" style="stop-color:#4B2B36;stop-opacity:0.98"/>
	<stop  offset="1" style="stop-color:#250012"/>
</radialGradient>
<path class="st0" d="M12.1,12H276v256.6H12.1V12z"/>
<path class="st1" d="M12.1,12H276v256.6H12.1V12z M0.2,280.6H288V0H0.2V280.6z M182.2,116.6c-1.8-0.8-4.2-1.2-7.1-1.2
	c-15.5,0-26.3,11.9-26.3,31.7c0,22.5,11,31.7,24.8,31.7c3,0,6.1-0.4,8.5-1.4V116.6z M175.8,97c2.5,0,4,0,6.4,0.2V65.4
	c0-0.8,0.6-1.2,1.2-1.2h19.4c1,0,1.2,0.4,1.2,1v112.1c0,3.4,0,7.6,0.6,12.1c0,0.8-0.2,1-1.1,1.4c-10.3,4.9-21.2,7.1-31.4,7.1
	c-26.5,0-45.5-16.4-45.5-49.9C126.6,119.3,145.5,97,175.8,97L175.8,97z M105.4,194.5c0,1.2-0.2,1.6-1.6,1.6H85.4
	c-1.2,0-1.6-0.6-1.6-1.6V65.7c0-1.2,0.6-1.6,1.6-1.6H104c1,0,1.4,0.4,1.4,1.4V194.5z"/>
</svg>
