<?xml version="1.0" encoding="utf-8"?>
<!-- Generator: Adobe Illustrator 22.1.0, SVG Export Plug-In . SVG Version: 6.00 Build 0)  -->
<svg version="1.1" id="Layer_1" xmlns="http://www.w3.org/2000/svg" xmlns:xlink="http://www.w3.org/1999/xlink" x="0px" y="0px"
	 viewBox="0 0 116.6 173.6" style="enable-background:new 0 0 116.6 173.6;" xml:space="preserve">
<style type="text/css">
	.st0{fill:#CF4244;}
	.st1{fill:#EF454B;}
	.st2{fill:#FFFFFF;}
	.st3{fill:#F7E4E5;}
</style>
<g>
	<g>
		<polygon class="st0" points="0,41.6 116.4,41.6 106.4,159.7 58.4,173.6 10.8,159.3 		"/>
		<polygon class="st1" points="58.8,165.8 58.8,52 106.9,52 97.3,153.2 		"/>
		<path class="st2" d="M64.7,82.2l0.5,40.8l13.5-1.6l-1,5.1l-8.7,1.4l0.4,4.5l12.1-2.3l2.3-9.3l12.1-1.5l3-39.7L64.7,82.2z
			 M90.9,114l-6.3,0.6l0.5-5.4h-4.9l-0.5,6.1l-8.1,1.3L71,88.7L92.6,87L90.9,114z"/>
		<polygon class="st3" points="16.2,79.8 53.1,82.6 52.7,88.7 50.2,88.6 50.1,122.3 21.7,117.6 21.7,106.3 27.9,107.1 27.6,112.3 
			43.5,114.7 43.3,88.5 16.9,86.1 		"/>
		<g>
			<path class="st2" d="M0,39.2v-9.6h9.6v9.6H0z M2.2,37h3.5l-1.1-1.1l1.6-1.6l1.2,1.1v-3.5H2.2V37z"/>
			<path class="st2" d="M10.5,39.2v-9.6h2.2V37h5.1v-7.4h2.2v9.6H10.5z"/>
			<path class="st2" d="M21.1,39.2v-9.6h9.6v2.2h-7.4v1.4h7.4v2.2h-7.4V37h7.4v2.2H21.1z"/>
			<path class="st2" d="M41.2,39.2h-9.6V37h7.4v-1.4h-7.4v-5.9h9.6v2.2h-7.4v1.4h7.4V39.2z"/>
			<path class="st2" d="M42.1,39.2v-9.6h9.6v2.2h-7.4v1.4h7.4v2.2h-7.4V37h7.4v2.2H42.1z"/>
			<path class="st2" d="M52.6,29.6h2.2v0.7l5.1,5.1v-5.8h2.2v9.6H60v-0.7l-5.1-5.1v5.8h-2.2V29.6z"/>
			<path class="st2" d="M72.8,29.6v9.6h-9.6v-9.6H72.8z M65.4,31.8v1.4h-2.2v2.2h2.2V37h5.1v-1.4h-7.4v-2.2h7.4v-1.4H65.4z"/>
			<path class="st2" d="M73.7,39.2v-9.6h9.6v2.2h-7.4v1.4h7.4v2.2h-7.4V37h7.4v2.2H73.7z"/>
			<path class="st2" d="M84.2,29.6h9.6v5.9h-2.3l3,3l-1.6,1.6l-4.6-4.6h-1.9v3.7h-2.2V29.6z M86.5,31.8v1.4h5.1v-1.4H86.5z"/>
			<path class="st2" d="M95.4,29.6h9.6v5.9h-2.3l3,3l-1.6,1.6l-4.6-4.6h-1.9v3.7h-2.2V29.6z M97.7,31.8v1.4h5.1v-1.4H97.7z"/>
			<path class="st2" d="M116.6,31.1l-4.1,4.1v4.1h-2.2v-4.1l-4.1-4.1l1.6-1.6l3.6,3.6l3.6-3.6L116.6,31.1z"/>
		</g>
		<g>
			<path class="st2" d="M1.9,27.1v-6.3h14.7V6.3H0V0h27.1v6.3h-4.2v20.8H1.9z"/>
			<path class="st2" d="M29.8,27.1V0h27.1v27.2H29.8z M36.1,20.8h14.5V6.3H36.1V20.8z M40.2,10.4h6.3v6.3h-6.3V10.4z"/>
			<path class="st2" d="M86.6,27.1H59.5v-6.3h20.8v-4.1H59.5V0h27.1v6.3H65.8v4.1h20.8V27.1z"/>
			<path class="st2" d="M89.3,0h6.3v10.4H110V0h6.3v27.1H110V16.7H95.6v10.4h-6.3V0z"/>
		</g>
	</g>
</g>
</svg>
