<?xml version="1.0" encoding="utf-8"?>
<!-- Generator: Adobe Illustrator 22.1.0, SVG Export Plug-In . SVG Version: 6.00 Build 0)  -->
<svg version="1.1" id="Layer_1" xmlns="http://www.w3.org/2000/svg" xmlns:xlink="http://www.w3.org/1999/xlink" x="0px" y="0px"
	 viewBox="0 0 116.4 132" style="enable-background:new 0 0 116.4 132;" xml:space="preserve">
<style type="text/css">
	.st0{fill:#CF4244;}
	.st1{fill:#EF454B;}
	.st2{fill:#FFFFFF;}
	.st3{fill:#F7E4E5;}
</style>
<g>
	<g>
		<polygon class="st0" points="0,0 116.4,0 106.4,118.1 58.4,132 10.8,117.7 		"/>
		<polygon class="st1" points="58.8,124.2 58.8,10.4 106.9,10.4 97.3,111.6 		"/>
		<path class="st2" d="M64.7,40.6l0.5,40.8l13.5-1.6l-1,5.1l-8.7,1.4l0.4,4.5l12.1-2.3l2.3-9.3l12.1-1.5l3-39.7L64.7,40.6z
			 M90.9,72.4l-6.3,0.6l0.5-5.4h-4.9l-0.5,6.1L71.6,75L71,47.1l21.6-1.7L90.9,72.4z"/>
		<polygon class="st3" points="16.2,38.2 53.1,41 52.7,47.2 50.2,47 50.1,80.7 21.8,76 21.8,64.7 27.9,65.5 27.6,70.7 43.5,73.1 
			43.3,46.9 16.9,44.5 		"/>
	</g>
</g>
</svg>
