<?xml version="1.0" encoding="utf-8"?>
<!-- Generator: Adobe Illustrator 22.1.0, SVG Export Plug-In . SVG Version: 6.00 Build 0)  -->
<svg version="1.1" id="Layer_1" xmlns="http://www.w3.org/2000/svg" xmlns:xlink="http://www.w3.org/1999/xlink" x="0px" y="0px"
	 viewBox="0 0 73 10.3" style="enable-background:new 0 0 73 10.3;" xml:space="preserve">
<g>
	<path d="M10.2,9.5V0.1h9.3v9.3H10.2z M12.4,7.3h3.4l-1.1-1.1l1.5-1.5l1.1,1.1V2.3h-5V7.3z"/>
	<path d="M30.3,0.1v9.3H21V0.1H30.3z M23.1,2.3v1.4H21v2.2h2.2v1.4h5V5.9H21V3.7h7.2V2.3H23.1z"/>
	<path d="M31.2,9.5V0.1h9.3v2.2h-7.2v1.4h7.2v2.2h-7.2v1.4h7.2v2.2H31.2z"/>
	<path d="M41.5,0.1h9.3v5.8h-2.3l2.9,2.9l-1.5,1.5l-4.5-4.5h-1.8v3.6h-2.2V0.1z M43.6,2.3v1.4h5V2.3H43.6z"/>
	<path d="M52.4,0.1h9.3v5.8h-2.3l2.9,2.9l-1.5,1.5l-4.5-4.5h-1.8v3.6h-2.2V0.1z M54.6,2.3v1.4h5V2.3H54.6z"/>
	<path d="M73,1.5l-4,4v3.9h-2.2V5.5l-4-4L64.4,0l3.5,3.5L71.5,0L73,1.5z"/>
</g>
<g>
	<path d="M0.8,9.5V7.3h5.1v-5H0.1V0.1h9.4v2.2H8.1v7.2H0.8z"/>
</g>
</svg>
