<?xml version="1.0" encoding="utf-8"?>
<!-- Generator: Adobe Illustrator 19.1.0, SVG Export Plug-In . SVG Version: 6.00 Build 0)  -->
<svg version="1.1" id="Layer_1" xmlns="http://www.w3.org/2000/svg" xmlns:xlink="http://www.w3.org/1999/xlink" x="0px" y="0px"
	 viewBox="0 306 612 182" style="enable-background:new 0 306 612 182;" xml:space="preserve">
<style type="text/css">
	.st0{fill:#136BB0;}
</style>
<g id="Logotipo">
	<g>
		<path class="st0" d="M19.3,355.2l0.5-1.6c-0.2,0,2.1-3.7,1.9-3.7c-17.5,16.9-16,39.6-7.6,55.8c5.9,11.3,16.6,22,29.3,27.7
			c5.9,2.7,14.9,5.1,24.5,5c20.4-0.5,34.5-10,42.6-25.7l0.5-1.3c-7.2,7.2-18.6,12-27.7,13C45.6,428.3,6.8,394.5,19.3,355.2z"/>
		<path class="st0" d="M69.5,360.9c5,8.1,14.5,15,29.3,11.8c3.8-0.8,12.2-7.2,13.7-10.5c-12.7,8.7-20.6,5.8-24.4,4.7
			c-0.8-0.2-2.8-1-4.5-2.2c-3.9-2.4-5.9-3.5-9-8c-1.7-2.4-3.4-6.4-3.9-8.7c-0.9-3.7-0.7-9.3,1-14.2c-5.8,5.2-6.7,15-4.7,21.6
			C67.3,356.4,68.7,359.7,69.5,360.9z"/>
		<path class="st0" d="M73.5,403.3c19.9,2.7,34.7-5.8,39.9-18.7c-5.9,6.2-15.7,10.7-25.3,10.5C67,395,43.1,376,45.8,349.5
			c0.2-2.3,1.2-5.9,3.6-10.4c-7.1,9-11.2,16.2-10.1,28.5C40.9,384.3,56.8,401.1,73.5,403.3z"/>
	</g>
</g>
<g id="Isotipo">
	<g>
		<path d="M581,333.1L545,383l-3.2-13h-23.6c0,0,2.3,11.8,4,17.9c1.7,6,4.7,11.9,4.9,17.9c0.1,6.8-3.5,19.7-3.5,19.7l23-0.1
			c0,0,2.5-12.3,4.9-17.9c0.9-2.2,2.9-4,4-5.8c3.8-5.2,50.5-68.4,50.5-68.4L581,333.1z"/>
		<path d="M533.6,346.5c-5.1-3-17-1.7-27.3-1.7h-15.9c-10,0-15.9-0.7-16.9,3.2c-3.1,11.8-16.3,77.4-16.3,77.4h21.2l13.8-60.3h11.3
			c13.2,0,37.5-0.3,37.5-0.3S538.2,349.3,533.6,346.5z"/>
		<path d="M452.5,352.9c-4.5-6.2-13.5-8.4-19.6-9c-16-1.6-29.3,2.7-36.7,8.2c-2.2,1.6-4,3-5.8,4.9c-0.6,0.7-1.3,1.5-1.7,2.2
			c-0.5,0.7-1,1.2-1.5,1.9c-0.7,1-1.4,3-2.2,4.7c-0.7,1.4-1.3,3-1.9,4.3c-4.4,11-9,31.6-4.9,42.4c0.6,1.6,2,3.6,2.4,4.3
			c0.6,0.8,1,1.6,1.7,2.3c2.2,2.4,5.6,4,9,4.9c17.6,4.3,52.9,2.4,52.9,2.4l4.4-19.2c0,0-25,1.2-36.9-0.3c-1.9-0.2-6.8-0.5-9.3-2.8
			c-2.2-2-4.9-6.6-2.9-9.5c1.4-2.1,6.8-1.5,11.3-1.6c14.7-0.5,41.5,0,41.5,0s5.2-22.9,2.4-32.5C454.2,357.8,453.6,354.5,452.5,352.9
			z M434.9,375.8l-31.5-0.2c0,0-0.3-13.7,18.1-13.1c6.6,0.2,8.9,1,11.2,5C435.6,371.9,434.9,375.8,434.9,375.8z"/>
		<path d="M357.8,344.6l-14.7,61.1c0,0-8.2,0-10.5,0c-7.9-0.2-10.3-0.5-12.2-4c-2-3.8-0.1-8.8,0.8-13.8c2.5-14.4,8.6-43.3,8.6-43.3
			l-21.3,0.1c0,0-4,18.5-6,27.6c-2.8,12.7-8.6,31.7-2.4,43.2c6.2,11.8,20.9,9.7,37.5,9.7h23.6c5.9-26.5,17.2-80.8,17.2-80.8
			L357.8,344.6z"/>
		<path d="M290.1,353.5c-1.3-9.1-7.3-19-13.7-23.1c-0.2-0.1-1.4-1.2-1.7-1.3c-4.9-2.8-12.5-5.2-17.9-5.8
			c-27.7-2.9-44.3,9.4-53.8,26.1c-3.8,6.6-6.2,13.7-8.2,21.2c-2.2,8.4-3.7,18.5-2.4,27.7c0.7,5.6,3.8,13.3,8.2,17.9
			c10.8,11.2,31.9,9.7,54.6,9.7c6.9,0,23.6-0.1,28.5-0.2c1.6,0,6.4-19,5.9-19.6c-0.3-0.5-6,0.2-12.3-0.3
			C283.5,389.4,292.5,370.6,290.1,353.5z M261.6,383.7c-2.1,7.3-4,14.6-6.6,21.2c-16.4-0.1-31.7,2.2-36.7-8.2
			c-2.8-5.9-1.5-13.7,0-21.2c2.1-10,4-17.4,9.7-23.6c4.5-4.9,15.6-10.8,27.7-6.6c4,1.4,10.1,8.2,10.5,15.5
			C266.9,367.9,263.8,376.1,261.6,383.7z"/>
		<path d="M153.3,407.4c-3.4,15.9-3.8,32.2-21.2,30.1c-1.6,6.1-3.8,14.2-5.7,21.2c7.2,0.1,13.7,0.7,19.4,0.1c3.6-0.3,10-2,11.3-3.2
			c0.6-0.6,0.9-0.2,1.6-0.8c7.6-5.9,9.4-14,12.2-25.3c4.5-17.8,10.1-43.6,13-59.5h-21.9C161.2,373.6,155.3,398.2,153.3,407.4z"/>
	</g>
</g>
</svg>
