<?xml version="1.0" encoding="utf-8"?>
<!-- Generator: Adobe Illustrator 22.1.0, SVG Export Plug-In . SVG Version: 6.00 Build 0)  -->
<svg version="1.1" id="Layer_1" xmlns="http://www.w3.org/2000/svg" xmlns:xlink="http://www.w3.org/1999/xlink" x="0px" y="0px"
	 viewBox="0 0 297.45 419.851" enable-background="new 0 0 297.45 419.851" xml:space="preserve">
<g>
	<polygon fill="#E4A227" points="27.07,386.18 0,82.557 297.45,82.557 270.352,386.13 148.543,419.901 	"/>
	<polygon fill="#F0BF26" points="148.475,393.712 246.903,366.426 270.061,107.008 148.475,107.008 	"/>
	<g>
		<polygon fill="#151515" points="201.661,15.496 176.971,15.496 202.647,43.356 202.647,56.616 149.764,56.616 149.764,41.09 
			175.434,41.09 149.764,13.231 149.764,-0.05 201.661,-0.05 		"/>
		<path fill="#020202" d="M140.346-0.025v56.617H94.803V37.878h26.613V-0.025h18.928H140.346z"/>
	</g>
	<polygon fill="#EBEBEB" points="148.418,316.352 148.256,316.398 106.784,305.199 104.131,275.501 83.981,275.501 66.752,275.501 
		71.969,333.969 148.246,355.145 148.418,355.096 	"/>
	<polygon fill="#EBEBEB" points="153.434,256.863 153.434,219.625 107.58,219.625 112.957,161.183 153.537,160.102 153.434,121.379 
		79.29,121.379 76.536,148.828 67.784,246.863 66.876,256.863 76.911,256.863 	"/>
	<polygon fill="#FFFFFF" points="153.182,160.154 153.345,160.108 194.016,162.557 197.467,201.004 217.618,201.004 
		234.848,201.004 228.334,129.058 153.354,121.362 153.182,121.41 	"/>
	<polyline fill="#FFFFFF" points="231.009,160.268 227.818,121.379 149.215,121.379 149.215,145.531 149.215,160.171 
		149.215,160.268 231.009,160.268 	"/>
	<polygon fill="#FFFFFF" points="148.289,219.643 148.289,256.88 194.143,256.88 189.821,305.173 148.289,316.385 148.289,355.126 
		224.629,333.969 225.188,327.678 233.94,229.642 234.848,219.643 224.813,219.643 	"/>
	<path fill="#FFFFFF" d="M226.225,158.618"/>
</g>
</svg>
