<?xml version="1.0" encoding="utf-8"?>
<!-- Generator: Adobe Illustrator 22.1.0, SVG Export Plug-In . SVG Version: 6.00 Build 0)  -->
<svg version="1.1" id="Layer_1" xmlns="http://www.w3.org/2000/svg" xmlns:xlink="http://www.w3.org/1999/xlink" x="0px" y="0px"
	 viewBox="0 0 512 314" style="enable-background:new 0 0 512 314;" xml:space="preserve">
<style type="text/css">
	.st0{fill:#539E43;}
	.st1{fill:#333333;}
	.st2{fill:url(#path-2_4_);}
	.st3{filter:url(#Adobe_OpacityMaskFilter);}
	.st4{fill:#FFFFFF;}
	.st5{mask:url(#mask-3_1_);}
	.st6{fill:none;}
	.st7{fill:url(#SVGID_1_);}
	.st8{filter:url(#Adobe_OpacityMaskFilter_1_);}
	.st9{mask:url(#mask-3_2_);}
	.st10{fill:url(#SVGID_2_);}
	.st11{fill:url(#SVGID_3_);}
	.st12{fill:url(#SVGID_4_);}
	.st13{fill:url(#SVGID_5_);}
	.st14{fill:url(#SVGID_6_);}
</style>
<g>
	<path class="st0" d="M253.1,313.1c-1.7,0-3.4-0.5-4.9-1.3l-15.4-9.1c-2.3-1.3-1.2-1.7-0.5-2c3.1-1,3.7-1.3,6.9-3.1
		c0.3-0.2,0.8-0.1,1.2,0.1l11.8,7.1c0.5,0.2,1,0.2,1.4,0l46.1-26.7c0.5-0.2,0.7-0.7,0.7-1.3v-53.3c0-0.6-0.2-1-0.7-1.3l-46.1-26.6
		c-0.5-0.2-1-0.2-1.4,0l-46.1,26.6c-0.5,0.2-0.7,0.8-0.7,1.3v53.3c0,0.5,0.2,1,0.7,1.3l12.6,7.3c6.8,3.5,11.1-0.6,11.1-4.6v-52.6
		c0-0.7,0.6-1.4,1.4-1.4h5.9c0.7,0,1.4,0.6,1.4,1.4v52.6c0,9.1-5,14.4-13.6,14.4c-2.7,0-4.7,0-10.6-2.9l-12.1-6.9
		c-3-1.7-4.9-5-4.9-8.4v-53.3c0-3.5,1.8-6.7,4.9-8.4l46.1-26.7c2.9-1.6,6.8-1.6,9.7,0l46.1,26.7c3,1.7,4.9,5,4.9,8.4v53.3
		c0,3.5-1.8,6.7-4.9,8.4L258,312.1C256.5,312.7,254.7,313.1,253.1,313.1z M267.3,276.5c-20.2,0-24.4-9.2-24.4-17.1
		c0-0.7,0.6-1.4,1.4-1.4h6c0.7,0,1.3,0.5,1.3,1.2c0.9,6.1,3.6,9.1,15.8,9.1c9.7,0,13.9-2.2,13.9-7.4c0-3-1.2-5.2-16.3-6.7
		c-12.6-1.3-20.5-4-20.5-14.1c0-9.4,7.9-14.9,21-14.9c14.8,0,22.1,5.1,23,16.2c0,0.3-0.1,0.7-0.3,1c-0.2,0.2-0.6,0.5-0.9,0.5h-6
		c-0.6,0-1.2-0.5-1.3-1c-1.4-6.4-5-8.4-14.4-8.4c-10.6,0-11.9,3.7-11.9,6.5c0,3.4,1.5,4.4,15.8,6.2c14.2,1.8,20.9,4.5,20.9,14.4
		C290.3,270.7,282,276.5,267.3,276.5z"/>
	<path class="st1" d="M110,104.7c0-2.1-1.2-4-3-5.1L58,71.4c-0.8-0.5-1.7-0.7-2.7-0.8h-0.5c-0.9,0-1.8,0.3-2.7,0.8l-49,28.2
		c-1.8,1-3,3-3,5.1l0.1,75.8c0,1,0.6,2.1,1.5,2.5c0.9,0.6,2.1,0.6,2.9,0l29.1-16.6c1.8-1,3-3,3-5.1v-35.5c0-2.1,1.2-4,3-5.1
		l12.4-7.2c0.9-0.6,2-0.8,3-0.8s2.1,0.2,2.9,0.8l12.4,7.2c1.8,1,3,3,3,5.1v35.5c0,2.1,1.2,4,3,5.1l29.1,16.6c0.9,0.6,2.1,0.6,3,0
		c0.9-0.5,1.5-1.5,1.5-2.5L110,104.7L110,104.7z"/>
	<path class="st1" d="M345.6,0.3c-0.9-0.5-2.1-0.5-2.9,0c-0.9,0.6-1.5,1.5-1.5,2.5V78c0,0.7-0.3,1.4-1,1.8c-0.7,0.3-1.4,0.3-2.1,0
		l-12.3-7.1c-1.8-1-4-1-5.9,0l-49,28.3c-1.8,1-3,3-3,5.1v56.5c0,2.1,1.2,4,3,5.1l49,28.3c1.8,1,4,1,5.9,0l49-28.3c1.8-1,3-3,3-5.1
		V21.8c0-2.2-1.2-4.2-3-5.2L345.6,0.3L345.6,0.3z M341.1,144.1c0,0.6-0.2,1-0.7,1.3l-16.8,9.7c-0.5,0.2-1,0.2-1.5,0l-16.8-9.7
		c-0.5-0.2-0.7-0.8-0.7-1.3v-19.4c0-0.6,0.2-1,0.7-1.3l16.8-9.7c0.5-0.2,1-0.2,1.5,0l16.8,9.7c0.5,0.2,0.7,0.8,0.7,1.3V144.1
		L341.1,144.1z"/>
	<g transform="translate(401.047404, 70.501129)">
		<path class="st1" d="M107.6,53.7c1.8-1,2.9-3,2.9-5.1V34.9c0-2.1-1.2-4-2.9-5.1L58.9,1.6c-1.8-1-4-1-5.9,0L4,29.9
			c-1.8,1-3,3-3,5.1v56.5c0,2.1,1.2,4,3,5.1l48.7,27.7c1.8,1,4,1,5.8,0L88,107.9c0.9-0.5,1.5-1.5,1.5-2.5c0-1-0.6-2.1-1.5-2.5
			L38.7,74.5C37.8,74,37.2,73,37.2,72V54.3c0-1,0.6-2.1,1.5-2.5L54.1,43c0.9-0.6,2.1-0.6,3,0l15.4,8.8c0.9,0.6,1.5,1.5,1.5,2.5v13.9
			c0,1,0.6,2.1,1.5,2.5c0.9,0.6,2.1,0.6,3,0L107.6,53.7L107.6,53.7z"/>
		<path class="st0" d="M55.2,51.1c0.3-0.2,0.8-0.2,1.2,0l9.4,5.4c0.3,0.2,0.6,0.6,0.6,1v10.9c0,0.5-0.2,0.8-0.6,1l-9.4,5.4
			c-0.3,0.2-0.8,0.2-1.2,0l-9.4-5.4c-0.3-0.2-0.6-0.6-0.6-1V57.6c0-0.5,0.2-0.8,0.6-1L55.2,51.1L55.2,51.1z"/>
	</g>
	<g transform="translate(134.067720, 70.501129)">
		<g>
			
				<linearGradient id="path-2_4_" gradientUnits="userSpaceOnUse" x1="-22.4137" y1="230.4288" x2="-22.8173" y2="229.7061" gradientTransform="matrix(108.9878 0 0 -124.186 2517.5747 28638.8008)">
				<stop  offset="0" style="stop-color:#41873F"/>
				<stop  offset="0.3288" style="stop-color:#418B3D"/>
				<stop  offset="0.6352" style="stop-color:#419637"/>
				<stop  offset="0.9319" style="stop-color:#3FA92D"/>
				<stop  offset="1" style="stop-color:#3FAE2A"/>
			</linearGradient>
			<path id="path-2_1_" class="st2" d="M57.9,1.8c-1.8-1-4-1-5.9,0L3.4,29.9c-1.8,1-2.9,3-2.9,5.1v56.3c0,2.1,1.2,4,2.9,5.1
				L52,124.5c1.8,1,4,1,5.9,0l48.7-28.1c1.8-1,2.9-3,2.9-5.1V35c0-2.1-1.2-4-2.9-5.1L57.9,1.8L57.9,1.8z"/>
		</g>
		<defs>
			<filter id="Adobe_OpacityMaskFilter" filterUnits="userSpaceOnUse" x="0" y="1.1" width="109.8" height="124.4">
				<feColorMatrix  type="matrix" values="1 0 0 0 0  0 1 0 0 0  0 0 1 0 0  0 0 0 1 0"/>
			</filter>
		</defs>
		<mask maskUnits="userSpaceOnUse" x="0" y="1.1" width="109.8" height="124.4" id="mask-3_1_">
			<g class="st3">
				<path id="path-2_2_" class="st4" d="M57.9,1.8c-1.8-1-4-1-5.9,0L3.4,29.9c-1.8,1-2.9,3-2.9,5.1v56.3c0,2.1,1.2,4,2.9,5.1
					L52,124.5c1.8,1,4,1,5.9,0l48.7-28.1c1.8-1,2.9-3,2.9-5.1V35c0-2.1-1.2-4-2.9-5.1L57.9,1.8L57.9,1.8z"/>
			</g>
		</mask>
		<g class="st5">
			<path class="st6" d="M51.9,1.8L3.1,29.9C1.3,31,0,32.9,0,35v56.3C0,92.7,0.6,94,1.5,95L56.3,1.2C54.9,0.9,53.3,1,51.9,1.8
				L51.9,1.8z"/>
			<path class="st6" d="M56.6,125.1c0.5-0.1,0.9-0.3,1.4-0.6l48.8-28.1c1.8-1,3-3,3-5.1V35c0-1.5-0.7-3-1.7-4L56.6,125.1L56.6,125.1
				z"/>
			
				<linearGradient id="SVGID_1_" gradientUnits="userSpaceOnUse" x1="-22.6872" y1="230.052" x2="-21.5275" y2="230.7867" gradientTransform="matrix(106.4452 0 0 -124.1327 2462.5042 28626.7148)">
				<stop  offset="0.1376" style="stop-color:#41873F"/>
				<stop  offset="0.4032" style="stop-color:#54A044"/>
				<stop  offset="0.7136" style="stop-color:#66B848"/>
				<stop  offset="0.9081" style="stop-color:#6CC04A"/>
			</linearGradient>
			<path class="st7" d="M106.7,29.9L57.8,1.8c-0.5-0.2-1-0.5-1.5-0.6L1.5,95.1c0.5,0.6,1,1,1.6,1.4L52,124.6c1.4,0.8,3,1,4.5,0.6
				l51.4-94.1C107.6,30.6,107.1,30.3,106.7,29.9L106.7,29.9z"/>
		</g>
		<defs>
			<filter id="Adobe_OpacityMaskFilter_1_" filterUnits="userSpaceOnUse" x="0" y="-8.4" width="111.3" height="135.3">
				<feColorMatrix  type="matrix" values="1 0 0 0 0  0 1 0 0 0  0 0 1 0 0  0 0 0 1 0"/>
			</filter>
		</defs>
		<mask maskUnits="userSpaceOnUse" x="0" y="-8.4" width="111.3" height="135.3" id="mask-3_2_">
			<g class="st8">
				<path id="path-2_3_" class="st4" d="M57.9,1.8c-1.8-1-4-1-5.9,0L3.4,29.9c-1.8,1-2.9,3-2.9,5.1v56.3c0,2.1,1.2,4,2.9,5.1
					L52,124.5c1.8,1,4,1,5.9,0l48.7-28.1c1.8-1,2.9-3,2.9-5.1V35c0-2.1-1.2-4-2.9-5.1L57.9,1.8L57.9,1.8z"/>
			</g>
		</mask>
		<g class="st9">
			<g transform="translate(0.000000, -9.246050)">
				<path class="st6" d="M109.8,100.6V44.3c0-2.1-1.3-4-3.1-5.1L57.8,11.1c-0.6-0.3-1.2-0.6-1.8-0.7l53.5,91.4
					C109.7,101.5,109.8,101,109.8,100.6L109.8,100.6z"/>
				<path class="st6" d="M3.1,39.2c-1.8,1-3.1,3-3.1,5.1v56.3c0,2.1,1.4,4,3.1,5.1L52,133.7c1.2,0.7,2.4,0.9,3.8,0.7L3.5,39.1
					L3.1,39.2L3.1,39.2z"/>
				
					<linearGradient id="SVGID_2_" gradientUnits="userSpaceOnUse" x1="-187.3381" y1="276.7384" x2="-89.9211" y2="276.7384" gradientTransform="matrix(0.9246 0 0 -0.3467 182.1015 96.935)">
					<stop  offset="9.191646e-02" style="stop-color:#6CC04A"/>
					<stop  offset="0.2864" style="stop-color:#66B848"/>
					<stop  offset="0.5968" style="stop-color:#54A044"/>
					<stop  offset="0.8624" style="stop-color:#41873F"/>
				</linearGradient>
				<path class="st10" d="M50.4,0.8l-0.7,0.3h0.9L50.4,0.8z"/>
				
					<linearGradient id="SVGID_3_" gradientUnits="userSpaceOnUse" x1="-23.1649" y1="239.3496" x2="-22.1061" y2="239.3496" gradientTransform="matrix(106.3296 0 0 -124.2334 2461.803 29807.6211)">
					<stop  offset="9.191646e-02" style="stop-color:#6CC04A"/>
					<stop  offset="0.2864" style="stop-color:#66B848"/>
					<stop  offset="0.5968" style="stop-color:#54A044"/>
					<stop  offset="0.8624" style="stop-color:#41873F"/>
				</linearGradient>
				<path class="st11" d="M106.8,105.6c1.4-0.8,2.4-2.2,2.9-3.7L56.1,10.4c-1.4-0.2-2.9-0.1-4.2,0.7l-48.5,28l52.4,95.5
					c0.7-0.1,1.5-0.3,2.2-0.7L106.8,105.6L106.8,105.6z"/>
				
					<linearGradient id="SVGID_4_" gradientUnits="userSpaceOnUse" x1="-442.2275" y1="255.3136" x2="-344.8105" y2="255.3136" gradientTransform="matrix(0.3467 0 0 -0.809 230.604 311.0941)">
					<stop  offset="9.191646e-02" style="stop-color:#6CC04A"/>
					<stop  offset="0.2864" style="stop-color:#66B848"/>
					<stop  offset="0.5968" style="stop-color:#54A044"/>
					<stop  offset="0.8624" style="stop-color:#41873F"/>
				</linearGradient>
				<path class="st12" d="M111.3,104.7l-0.3-0.6v0.8L111.3,104.7z"/>
				
					<linearGradient id="SVGID_5_" gradientUnits="userSpaceOnUse" x1="-25.1422" y1="239.6236" x2="-23.0956" y2="239.6236" gradientTransform="matrix(55.014 0 0 -34.326 1381.8564 8344.2979)">
					<stop  offset="9.191646e-02" style="stop-color:#6CC04A"/>
					<stop  offset="0.2864" style="stop-color:#66B848"/>
					<stop  offset="0.5968" style="stop-color:#54A044"/>
					<stop  offset="0.8624" style="stop-color:#41873F"/>
				</linearGradient>
				<path class="st13" d="M106.8,105.6L58,133.7c-0.7,0.3-1.4,0.6-2.2,0.7l0.9,1.7l54.1-31.3v-0.7l-1.4-2.3
					C109.2,103.4,108.2,104.8,106.8,105.6L106.8,105.6z"/>
				
					<linearGradient id="SVGID_6_" gradientUnits="userSpaceOnUse" x1="-22.7992" y1="242.2349" x2="-24.0614" y2="238.1081" gradientTransform="matrix(55.014 0 0 -34.326 1381.8564 8344.2979)">
					<stop  offset="0" style="stop-color:#41873F"/>
					<stop  offset="0.3288" style="stop-color:#418B3D"/>
					<stop  offset="0.6352" style="stop-color:#419637"/>
					<stop  offset="0.9319" style="stop-color:#3FA92D"/>
					<stop  offset="1" style="stop-color:#3FAE2A"/>
				</linearGradient>
				<path class="st14" d="M106.8,105.6L58,133.7c-0.7,0.3-1.4,0.6-2.2,0.7l0.9,1.7l54.1-31.3v-0.7l-1.4-2.3
					C109.2,103.4,108.2,104.8,106.8,105.6L106.8,105.6z"/>
			</g>
		</g>
	</g>
</g>
</svg>
