<?xml version="1.0" encoding="utf-8"?>
<!-- Generator: Adobe Illustrator 22.1.0, SVG Export Plug-In . SVG Version: 6.00 Build 0)  -->
<svg version="1.1" id="Layer_1" xmlns="http://www.w3.org/2000/svg" xmlns:xlink="http://www.w3.org/1999/xlink" x="0px" y="0px"
	 viewBox="0 0 288 280.8" style="enable-background:new 0 0 288 280.8;" xml:space="preserve">
<style type="text/css">
	.st0{fill:url(#SVGID_1_);}
	.st1{fill:#31C5F0;}
</style>
<radialGradient id="SVGID_1_" cx="-184.0216" cy="-44.2738" r="8.755185e-02" gradientTransform="matrix(2291.6716 0 0 -2218.7549 421816.0938 -98163.25)" gradientUnits="userSpaceOnUse">
	<stop  offset="0" style="stop-color:#34364E;stop-opacity:0.98"/>
	<stop  offset="1" style="stop-color:#0C0824"/>
</radialGradient>
<path class="st0" d="M12,12h264v256.8H12V12z"/>
<path class="st1" d="M12,12h264v256.8H12V12z M0,280.8h288V0H0V280.8z M194.2,115.2c-9.5,0-12.7,4.8-12.7,8.8
	c0,4.3,2.2,7.3,14.9,13.9c18.8,9.1,24.7,17.9,24.7,30.7c0,19.2-14.6,29.5-34.4,29.5c-10.4,0-19.4-2.2-24.6-5.2c-0.8-0.4-1-1-1-1.9
	v-17.6c0-1.2,0.6-1.6,1.4-1c7.6,4.9,16.2,7.1,24.1,7.1c9.5,0,13.4-4,13.4-9.4c0-4.3-2.8-8.2-14.9-14.4c-17-8.2-24.1-16.4-24.1-30.2
	c0-15.5,12.1-28.3,33.1-28.3c10.3,0,17.5,1.6,21.5,3.4c1,0.6,1.2,1.6,1.2,2.4v16.4c0,1-0.6,1.6-1.8,1.2
	C209.8,117.2,202,115.2,194.2,115.2L194.2,115.2z M91,129.5c2.8,0.2,4.9,0.2,9.7,0.2c14,0,27.2-4.9,27.2-24
	c0-15.2-9.5-22.9-25.4-22.9c-4.8,0-9.4,0.2-11.5,0.4V129.5z M69.6,65.8c0-0.8,1.7-1.4,2.6-1.4c7.7-0.4,19.1-0.6,31-0.6
	c33.2,0,46.2,18.2,46.2,41.5c0,30.5-22.1,43.6-49.2,43.6c-4.6,0-6.1-0.2-9.4-0.2v46.1c0,1-0.4,1.4-1.4,1.4H71c-1,0-1.4-0.4-1.4-1.4
	L69.6,65.8L69.6,65.8z"/>
</svg>
