<?xml version="1.0" encoding="utf-8"?>
<!-- Generator: Adobe Illustrator 22.1.0, SVG Export Plug-In . SVG Version: 6.00 Build 0)  -->
<svg version="1.1" id="Layer_1" xmlns="http://www.w3.org/2000/svg" xmlns:xlink="http://www.w3.org/1999/xlink" x="0px" y="0px"
	 viewBox="0 0 198 30" enable-background="new 0 0 198 30" xml:space="preserve">
<title>White Tracker Logo</title>
<desc>Created with Sketch.</desc>
<g id="Desktop">
	<g id="White-Tracker-Logo">
		<g id="footer-pt-logo-9ada744e87defbd72beaceb00638d8964d3a772c9c151b286d54275fbfed3922">
			<path id="Fill-1" fill="#5081B2" d="M39.675,14.634c0.813,0,1.545,0,2.114-0.569c0.569-0.488,0.894-1.22,0.894-2.033
				S42.276,10.488,41.626,10c-0.65-0.488-1.382-0.488-2.114-0.488h-1.707v5.122H39.675L39.675,14.634z M39.431,6.667
				c1.463,0,3.171,0.163,4.39,1.057c1.382,1.057,2.033,2.602,2.033,4.309c0,1.463-0.569,2.846-1.626,3.902
				c-1.22,1.22-2.52,1.545-4.228,1.545h-2.276v3.089h1.789v2.602h-6.748v-2.602h1.789V9.268h-1.789V6.667H39.431L39.431,6.667z"/>
			<path id="Fill-2" fill="#5081B2" d="M48.618,9.593h2.846V6.585h-2.846V9.593z M51.463,20.569h1.626v2.602h-6.016v-2.602h1.626
				v-7.073h-1.626v-2.683h4.39V20.569L51.463,20.569z"/>
			<polyline id="Fill-3" fill="#5081B2" points="61.545,23.171 58.618,23.171 54.797,13.496 53.333,13.496 53.333,10.813 
				59.106,10.813 59.106,13.496 57.805,13.496 60.081,19.675 60.081,19.675 62.52,13.496 61.22,13.496 61.22,10.813 66.911,10.813 
				66.911,13.496 65.447,13.496 61.545,23.171 			"/>
			<polyline id="Fill-4" fill="#5081B2" points="85.041,20.569 87.236,20.569 87.236,23.171 82.195,23.171 82.195,13.496 
				80.244,13.496 80.244,10.813 82.195,10.813 82.195,6.667 85.041,6.667 85.041,10.813 87.154,10.813 87.154,13.496 85.041,13.496 
				85.041,20.569 			"/>
			<path id="Fill-5" fill="#5081B2" d="M98.455,16.911c0-2.033-1.707-3.659-3.74-3.659c-2.114,0-3.74,1.707-3.74,3.821
				c0,2.033,1.707,3.659,3.659,3.659C96.829,20.732,98.455,19.024,98.455,16.911L98.455,16.911z M98.374,21.545
				c-0.894,1.382-2.358,2.033-3.984,2.033c-3.577,0-6.341-2.927-6.341-6.423c0-3.577,2.846-6.585,6.504-6.585
				c1.626,0,3.008,0.732,3.821,2.114v-1.789h4.39v2.683h-1.545v7.073h1.545v2.602h-4.39V21.545L98.374,21.545z"/>
			<polyline id="Fill-6" fill="#5081B2" points="108.943,20.569 110.569,20.569 110.569,23.171 104.39,23.171 104.39,20.569 
				106.098,20.569 106.098,9.268 104.553,9.268 104.553,6.667 108.943,6.667 108.943,20.569 			"/>
			<polyline id="Fill-7" fill="#EF7D00" points="119.106,20.569 120.894,20.569 120.894,23.171 114.146,23.171 114.146,20.569 
				115.935,20.569 115.935,9.431 113.496,9.431 113.496,11.87 111.057,11.87 111.057,6.667 124.065,6.667 124.065,11.87 
				121.545,11.87 121.545,9.431 119.106,9.431 119.106,20.569 			"/>
			<path id="Fill-8" fill="#EF7D00" d="M129.431,12.927c0.732-1.463,2.114-2.195,3.74-2.276v2.927
				c-0.894,0.081-1.707,0.244-2.439,0.894c-0.894,0.813-1.057,1.789-1.057,2.927v3.089h1.626v2.602h-6.016v-2.602h1.626v-7.073
				h-1.626v-2.683h4.228v2.195"/>
			<path id="Fill-9" fill="#EF7D00" d="M144.146,16.911c0-2.033-1.707-3.659-3.74-3.659c-2.114,0-3.74,1.707-3.74,3.821
				c0,2.033,1.707,3.659,3.659,3.659C142.52,20.732,144.146,19.024,144.146,16.911L144.146,16.911z M144.065,21.545
				c-0.894,1.382-2.358,2.033-3.984,2.033c-3.577,0-6.341-2.927-6.341-6.423c0-3.577,2.846-6.585,6.504-6.585
				c1.626,0,3.008,0.732,3.821,2.114v-1.789h4.39v2.683h-1.545v7.073h1.545v2.602h-4.39V21.545L144.065,21.545z"/>
			<path id="Fill-10" fill="#EF7D00" d="M161.951,19.024c-0.732,2.602-3.415,4.472-6.179,4.472c-3.577,0-6.504-2.927-6.504-6.504
				c0-3.415,2.683-6.585,6.26-6.585c1.382,0,2.602,0.569,3.577,1.545v-1.22h2.439v4.146h-2.683c-0.325-0.488-0.813-0.894-1.301-1.22
				c-0.569-0.325-1.138-0.488-1.789-0.488c-2.114,0-3.659,1.707-3.659,3.74c0,2.114,1.707,3.74,3.74,3.74
				c1.22,0,2.439-0.65,2.927-1.707h3.171"/>
			<path id="Fill-11" fill="#EF7D00" d="M186.179,15.854c-0.488-1.789-2.033-2.927-3.902-2.927c-1.707,0-3.252,1.301-3.577,2.927
				H186.179L186.179,15.854z M188.293,19.512c-0.976,2.358-3.252,3.984-5.854,3.984c-3.577,0-6.504-2.846-6.504-6.504
				s2.764-6.585,6.423-6.585c1.707,0,3.415,0.732,4.634,2.033s1.707,2.846,1.707,4.634l-0.081,0.976h-10
				c0.406,1.707,1.951,2.927,3.74,2.927c1.22,0,2.276-0.488,3.008-1.463H188.293L188.293,19.512z"/>
			<path id="Fill-12" fill="#EF7D00" d="M193.821,12.927c0.732-1.463,2.114-2.195,3.74-2.276v2.927
				c-0.894,0.081-1.707,0.244-2.439,0.894c-0.894,0.813-1.057,1.789-1.057,2.927v3.089h1.626v2.602h-6.016v-2.602h1.626v-7.073
				h-1.626v-2.683h4.228v2.195"/>
			<path id="Fill-13" fill="#EF7D00" d="M11.707,6.829l3.333,5.772c0.488-0.163,1.138-0.081,1.626,0.163l1.707-3.008l-2.927-5.041
				L11.707,6.829L11.707,6.829"/>
			<path id="Fill-14" fill="#EF7D00" d="M6.667,14.228h6.667c0.081-0.163,0.163-0.407,0.244-0.569
				c0.163-0.325,0.407-0.569,0.732-0.732l-1.707-3.008H6.748L6.667,14.228L6.667,14.228L6.667,14.228"/>
			<path id="Fill-15" fill="#EF7D00" d="M17.642,16.098c-0.163,0.325-0.407,0.569-0.732,0.732l1.707,3.008h5.854v-4.39h-6.667
				C17.886,15.691,17.805,15.854,17.642,16.098"/>
			<path id="Fill-16" fill="#EF7D00" d="M17.317,13.171c0.407,0.407,0.65,0.894,0.65,1.463h3.496l2.927-5.041l-3.74-2.195
				L17.317,13.171"/>
			<path id="Fill-17" fill="#EF7D00" d="M10.569,22.276l3.333-5.772c-0.407-0.407-0.65-0.894-0.65-1.463H9.756l-2.927,5.041
				L10.569,22.276L10.569,22.276"/>
			<path id="Fill-18" fill="#EF7D00" d="M19.512,22.927l-3.333-5.772c-0.488,0.163-1.138,0.081-1.626-0.163L12.846,20l2.927,5.041
				L19.512,22.927L19.512,22.927"/>
			<path id="Fill-19" fill="#5081B2" d="M15.61,0C7.398,0,0.732,6.667,0.732,14.878S7.398,29.756,15.61,29.756
				s14.878-6.667,14.878-14.878S23.821,0,15.61,0L15.61,0z M15.61,3.008c6.504,0,11.87,5.285,11.87,11.87
				c0,6.504-5.285,11.87-11.87,11.87c-6.504,0-11.87-5.285-11.87-11.87S9.106,3.008,15.61,3.008L15.61,3.008z"/>
			<path id="Fill-20" fill="#5081B2" d="M73.577,10.488c-3.577,0-6.504,2.927-6.504,6.504s2.927,6.504,6.504,6.504
				c3.577,0,6.504-2.927,6.504-6.504S77.154,10.488,73.577,10.488L73.577,10.488z M73.577,13.252c2.033,0,3.74,1.707,3.74,3.74
				s-1.707,3.74-3.74,3.74c-2.033,0-3.74-1.707-3.74-3.74S71.463,13.252,73.577,13.252L73.577,13.252z"/>
			<polyline id="Fill-21" fill="#EF7D00" points="173.902,20.569 170.244,16.748 173.659,13.496 175.122,13.496 175.122,10.813 
				169.024,10.813 169.024,13.171 170.325,13.171 167.154,16.341 167.154,6.667 162.683,6.667 162.683,9.268 164.309,9.268 
				164.309,20.569 162.683,20.569 162.683,23.171 167.154,23.171 167.154,17.317 170.081,20.569 169.024,20.569 169.024,23.171 
				175.772,23.171 175.772,20.569 173.902,20.569 			"/>
		</g>
	</g>
</g>
</svg>
