<?xml version="1.0" encoding="utf-8"?>
<!-- Generator: Adobe Illustrator 19.1.0, SVG Export Plug-In . SVG Version: 6.00 Build 0)  -->
<svg version="1.1" id="Layer_1" xmlns="http://www.w3.org/2000/svg" xmlns:xlink="http://www.w3.org/1999/xlink" x="0px" y="0px"
	 viewBox="-161 253 288 288" style="enable-background:new -161 253 288 288;" xml:space="preserve">
<style type="text/css">
	.st0{fill:#336791;}
	.st1{fill:#FFFFFF;}
</style>
<path d="M126.2,425.6c-1.7-5.1-6.3-8.6-12.1-9.5c-2.8-0.4-5.9-0.2-9.7,0.5c-6.5,1.3-11.4,1.8-14.9,1.9
	c13.3-21.9,24.2-46.8,30.4-70.3c10.1-37.9,4.7-55.2-1.6-63c-16.7-20.7-41.1-31.8-70.4-32.2c-15.7-0.2-29.4,2.8-36.6,5
	c-6.7-1.1-13.9-1.8-21.4-1.9c-14.1-0.2-26.6,2.8-37.3,8.9c-5.9-1.9-15.4-4.7-26.3-6.4c-25.8-4.1-46.5-0.9-61.7,9.5
	c-18.4,12.6-26.9,34.5-25.3,65.1c0.5,9.7,6.1,39.2,14.9,67.2c5.1,16.1,10.5,29.5,16.1,39.7c7.9,14.6,16.4,23.1,25.9,26.2
	c5.3,1.7,15,2.9,25.2-5.3c1.3,1.5,3,3,5.3,4.4c2.9,1.8,6.5,3.2,10,4.1c12.8,3.1,24.8,2.3,35-2c0.1,1.8,0.1,3.4,0.2,4.9
	c0.1,2.4,0.1,4.7,0.2,6.8c0.6,14.6,1.6,26,4.7,34c0.2,0.4,0.4,1.1,0.6,1.8c1.5,4.5,4.1,12,10.5,18c6.7,6.1,14.8,8,22.2,8
	c3.7,0,7.3-0.5,10.4-1.1c11.1-2.3,23.6-5.8,32.7-18.4c8.6-11.9,12.8-29.8,13.5-58c0.1-0.8,0.2-1.6,0.3-2.3l0.2-1.5l2,0.2h0.5
	c11.3,0.5,25.1-1.8,33.5-5.6C109.8,451.4,131.3,440.4,126.2,425.6"/>
<path class="st0" d="M106.9,428.5c-33.5,6.7-35.8-4.3-35.8-4.3c35.4-51,50.2-115.7,37.4-131.5c-34.8-43.2-95.2-22.8-96.2-22.2
	l-0.3,0.1c-6.6-1.3-14-2.1-22.4-2.3c-15.2-0.2-26.7,3.9-35.4,10.3c0,0-107.6-43-102.6,54.1c1.1,20.7,30.5,156.3,65.6,115.3
	c12.8-15,25.2-27.6,25.2-27.6c6.2,4,13.5,6,21.3,5.3l0.6-0.5c-0.2,1.9-0.1,3.7,0.2,5.8c-9,9.8-6.4,11.5-24.5,15.1
	c-18.3,3.7-7.6,10.2-0.5,11.9c8.5,2.1,28.2,5,41.5-13.1l-0.5,2.1c3.5,2.8,6,17.9,5.6,31.7c-0.4,13.7-0.7,23.2,2.1,30.6
	c2.8,7.4,5.6,24,29.4,19c19.9-4.1,30.2-14.8,31.6-32.7c1-12.7,3.3-10.8,3.5-22.2l1.8-5.4c2.1-17.2,0.3-22.8,12.6-20.2l3,0.3
	c9,0.4,20.8-1.4,27.7-4.5C112.8,436.7,121.6,425.5,106.9,428.5L106.9,428.5"/>
<path class="st1" d="M-39.5,341.9c-3-0.4-5.8,0-7.1,1c-0.8,0.6-1,1.2-1.1,1.7c-0.2,1.2,0.7,2.5,1.2,3.2c1.5,2,3.7,3.3,5.9,3.6
	c0.3,0,0.6,0.1,0.9,0.1c3.7,0,7-2.8,7.3-4.8C-31.9,344.1-35.8,342.4-39.5,341.9 M60.6,341.9c-0.3-2-4-2.6-7.4-2.1
	c-3.5,0.5-6.9,2-6.6,4c0.2,1.6,3.1,4.2,6.6,4.2c0.3,0,0.6,0,0.9-0.1c2.3-0.3,4-1.7,4.8-2.5C60.1,344.2,60.8,342.8,60.6,341.9"/>
<path class="st1" d="M118.1,427.7c-1.3-3.8-5.4-5-12.2-3.6c-20.3,4.1-27.6,1.2-30-0.5c15.8-23.3,28.8-51.5,35.8-77.8
	c3.3-12.5,5.1-24,5.3-33.5c0.2-10.4-1.7-18-5.4-22.6c-15.1-18.7-37.3-28.8-64.1-29.1c-18.5-0.2-34.1,4.4-37.1,5.7
	c-6.4-1.5-13.3-2.5-20.9-2.6c-13.9-0.2-25.8,3-35.7,9.6c-4.3-1.6-15.4-5.3-29.1-7.4c-23.5-3.7-42.2-0.9-55.6,8.3
	c-15.9,10.9-23.3,30.5-21.9,58.1c0.5,9.3,5.9,37.9,14.6,65.3c11.3,36.1,23.7,56.5,36.7,60.7c1.5,0.5,3.3,0.8,5.2,0.8
	c4.7,0,10.5-2.1,16.6-9.1c7.4-8.6,15-16.9,22.8-25.1c5.1,2.7,10.7,4.1,16.4,4.3c0,0.1,0,0.3,0,0.4c-1,1.1-2,2.3-2.9,3.5
	c-4,4.9-4.8,5.9-17.6,8.5c-3.6,0.7-13.3,2.7-13.4,9.2C-74.6,458-63,461-61.7,461.3c4.6,1.1,9,1.7,13.2,1.7c10.3,0,19.3-3.3,26.5-9.6
	c-0.2,25.6,0.9,50.8,4,58.5c2.6,6.3,8.9,21.7,28.9,21.7c2.9,0,6.2-0.3,9.7-1.1c20.9-4.3,30-13.3,33.5-33c1.9-10.5,5.1-35.7,6.6-49.3
	c3.2,1,7.3,1.4,11.8,1.4c9.3,0,20-1.9,26.7-4.9C106.9,443.3,120.5,435,118.1,427.7L118.1,427.7z M68.3,336.4
	c-0.1,4-0.6,7.6-1.2,11.4c-0.6,4.1-1.3,8.3-1.5,13.4c-0.2,5,0.5,10.1,1.1,15.1c1.2,10.1,2.5,20.5-2.4,30.7c-0.8-1.4-1.6-2.9-2.2-4.4
	c-0.6-1.5-2-3.8-3.8-7c-7.2-12.6-24.1-41.9-15.5-53.9C45.4,338.1,51.9,334.4,68.3,336.4L68.3,336.4z M48.4,268.8
	c24.1,0.5,43.1,9.2,56.6,25.9c10.3,12.8-1,71.1-34,121.4c-0.3-0.4-0.7-0.8-1-1.2l-0.4-0.5c8.5-13.6,6.8-27.1,5.4-39.1
	c-0.6-4.9-1.2-9.5-1-13.9c0.2-4.6,0.8-8.6,1.4-12.4c0.7-4.7,1.5-9.6,1.3-15.4c0.2-0.6,0.2-1.3,0.1-2.2c-0.5-5.5-7-22-20.3-37
	c-7.2-8.2-17.8-17.3-32.2-23.5C30.5,269.8,39,268.6,48.4,268.8L48.4,268.8z M-86.2,445c-6.7,7.8-11.2,6.3-12.8,5.8
	c-9.8-3.2-21.3-23.4-31.3-55.4c-8.7-27.7-13.8-55.5-14.2-63.3c-1.3-24.7,4.9-41.9,18.3-51.2c21.9-15.1,57.9-6,72.3-1.5
	c-0.2,0.2-0.4,0.4-0.6,0.6c-23.7,23.2-23.2,62.9-23.1,65.4c0,0.9,0.1,2.3,0.2,4.1c0.4,6.7,1.2,19.1-0.9,33.2
	c-1.9,13.1,2.3,25.9,11.4,35.1c0.9,0.9,1.9,1.8,3,2.7C-67.9,424.6-76.8,434-86.2,445L-86.2,445z M-60.8,412.1
	c-7.4-7.4-10.7-17.8-9.2-28.4c2.1-14.9,1.4-27.8,0.9-34.8c-0.1-1-0.1-1.8-0.1-2.5c3.5-3,19.5-11.3,31-8.8c5.2,1.2,8.4,4.6,9.7,10.5
	c6.9,30.7,0.9,43.6-3.9,53.8c-1,2.1-1.9,4.1-2.7,6.2l-0.6,1.6c-1.6,4.1-3,7.8-3.9,11.4C-47.4,421.2-55,418-60.8,412.1L-60.8,412.1z
	 M-59.6,453.6c-2.3-0.6-4.3-1.5-5.5-2.3c1-0.5,2.8-1.1,5.9-1.7c15-3,17.4-5.1,22.4-11.4c1.2-1.4,2.5-3.1,4.3-5l0,0
	c2.7-3,4-2.5,6.2-1.5c1.8,0.7,3.6,3,4.3,5.4c0.3,1.2,0.7,3.3-0.5,5.1C-33.1,456.5-48.5,456.3-59.6,453.6z M19.1,524.6
	c-18.4,3.8-24.9-5.3-29.2-15.7c-2.8-6.7-4.1-37-3.2-70.5c0-0.4-0.1-0.9-0.2-1.3c-0.1-0.8-0.3-1.6-0.5-2.4c-1.4-4.9-4.9-8.9-9.1-10.6
	c-1.7-0.7-4.7-1.9-8.4-1c0.8-3.1,2.1-6.7,3.6-10.5l0.6-1.6c0.7-1.8,1.6-3.7,2.5-5.7c5-10.8,11.8-25.5,4.4-58.9
	c-2.8-12.5-12.1-18.6-26.2-17.2c-8.4,0.8-16.2,4.2-20,6c-0.8,0.4-1.6,0.8-2.3,1.2c1.1-12.6,5.1-36.1,20.3-51
	c9.6-9.4,22.3-14,37.8-13.7c30.6,0.5,50.2,15.7,61.3,28.4c9.5,10.9,14.7,22,16.8,27.9c-15.5-1.5-26.1,1.4-31.4,8.9
	c-11.6,16.1,6.4,47.4,15,62.5c1.6,2.8,3,5.1,3.4,6.2c2.8,6.6,6.5,11,9.1,14.3c0.8,1,1.6,1.9,2.2,2.8c-4.7,1.3-13.1,4.3-12.4,19.5
	c-0.6,7.6-5,43.3-7.3,55.8C43.1,514.8,36.8,521,19.1,524.6L19.1,524.6z M95.9,439.4c-4.8,2.2-12.8,3.8-20.5,4.1
	c-8.4,0.4-12.7-0.9-13.7-1.7c-0.5-9.5,3.2-10.4,7-11.5c0.6-0.2,1.2-0.3,1.8-0.5c0.4,0.3,0.7,0.6,1.2,0.8c6.8,4.3,18.9,4.8,35.9,1.4
	h0.2C105.4,434.1,101.5,436.9,95.9,439.4L95.9,439.4z"/>
</svg>
