<?xml version="1.0" encoding="utf-8"?>
<!-- Generator: Adobe Illustrator 22.1.0, SVG Export Plug-In . SVG Version: 6.00 Build 0)  -->
<svg version="1.1" id="Layer_1" xmlns="http://www.w3.org/2000/svg" xmlns:xlink="http://www.w3.org/1999/xlink" x="0px" y="0px"
	 viewBox="0 0 351.3 350.3" style="enable-background:new 0 0 351.3 350.3;" xml:space="preserve">
<style type="text/css">
	.st0{fill:url(#SVGID_1_);}
	.st1{fill:url(#SVGID_2_);}
	.st2{fill:url(#SVGID_3_);}
	.st3{fill:url(#SVGID_4_);}
	.st4{fill:url(#SVGID_5_);}
	.st5{fill:url(#SVGID_6_);}
	.st6{fill:url(#SVGID_7_);}
	.st7{fill:url(#SVGID_8_);}
	.st8{fill:#FFFFFF;}
	.st9{fill:url(#SVGID_9_);}
	.st10{fill:url(#SVGID_10_);}
	.st11{fill:url(#SVGID_11_);}
	.st12{fill:url(#SVGID_12_);}
	.st13{fill:#9E1209;}
	.st14{fill:url(#SVGID_13_);}
	.st15{fill:url(#SVGID_14_);}
	.st16{fill:url(#SVGID_15_);}
	.st17{fill:url(#SVGID_16_);}
</style>
<g>
	
		<linearGradient id="SVGID_1_" gradientUnits="userSpaceOnUse" x1="848.648" y1="1549.3177" x2="848.6109" y2="1549.3834" gradientTransform="matrix(1981.5812 0 0 -1980.0968 -1681357.25 3068180)">
		<stop  offset="0" style="stop-color:#FB7655"/>
		<stop  offset="0" style="stop-color:#FB7655"/>
		<stop  offset="0.41" style="stop-color:#E42B1E"/>
		<stop  offset="0.99" style="stop-color:#990000"/>
		<stop  offset="1" style="stop-color:#990000"/>
	</linearGradient>
	<path class="st0" d="M271.5,230.9L72.3,349.1l257.9-17.5l19.9-260.1L271.5,230.9L271.5,230.9z"/>
	
		<linearGradient id="SVGID_2_" gradientUnits="userSpaceOnUse" x1="845.3293" y1="1550.5513" x2="845.1682" y2="1550.6096" gradientTransform="matrix(588.89 0 0 -1091.4792 -497461.5625 1692666.25)">
		<stop  offset="0" style="stop-color:#871101"/>
		<stop  offset="0" style="stop-color:#871101"/>
		<stop  offset="0.99" style="stop-color:#911209"/>
		<stop  offset="1" style="stop-color:#911209"/>
	</linearGradient>
	<path class="st1" d="M330.7,331.5l-22.2-153l-60.4,79.7L330.7,331.5L330.7,331.5z"/>
	
		<linearGradient id="SVGID_3_" gradientUnits="userSpaceOnUse" x1="848.5823" y1="1561.9045" x2="848.5307" y2="1562.201" gradientTransform="matrix(1838.8894 0 0 -214.6868 -1560180.5 335704.9375)">
		<stop  offset="0" style="stop-color:#871101"/>
		<stop  offset="0" style="stop-color:#871101"/>
		<stop  offset="0.99" style="stop-color:#911209"/>
		<stop  offset="1" style="stop-color:#911209"/>
	</linearGradient>
	<path class="st2" d="M331,331.5l-162.4-12.7l-95.4,30.1L331,331.5L331,331.5z"/>
	
		<linearGradient id="SVGID_4_" gradientUnits="userSpaceOnUse" x1="847.6897" y1="1551.149" x2="847.7128" y2="1551.0482" gradientTransform="matrix(636.8931 0 0 -948.1528 -539818.4375 1470951.875)">
		<stop  offset="0" style="stop-color:#FFFFFF"/>
		<stop  offset="0" style="stop-color:#FFFFFF"/>
		<stop  offset="0.23" style="stop-color:#E57252"/>
		<stop  offset="0.46" style="stop-color:#DE3B20"/>
		<stop  offset="0.99" style="stop-color:#A60003"/>
		<stop  offset="1" style="stop-color:#A60003"/>
	</linearGradient>
	<path class="st3" d="M73.4,348.8L114,215.9L24.7,235L73.4,348.8L73.4,348.8z"/>
	
		<linearGradient id="SVGID_5_" gradientUnits="userSpaceOnUse" x1="847.8048" y1="1550.3113" x2="847.8101" y2="1550.2178" gradientTransform="matrix(1028.4187 0 0 -1043.1245 -871727.875 1617303.875)">
		<stop  offset="0" style="stop-color:#FFFFFF"/>
		<stop  offset="0" style="stop-color:#FFFFFF"/>
		<stop  offset="0.23" style="stop-color:#E4714E"/>
		<stop  offset="0.56" style="stop-color:#BE1A0D"/>
		<stop  offset="0.99" style="stop-color:#A80D00"/>
		<stop  offset="1" style="stop-color:#A80D00"/>
	</linearGradient>
	<path class="st4" d="M248.1,258.6l-37.3-146.2L103.9,212.5L248.1,258.6L248.1,258.6z"/>
	
		<linearGradient id="SVGID_6_" gradientUnits="userSpaceOnUse" x1="846.9011" y1="1550.4951" x2="846.9188" y2="1550.3873" gradientTransform="matrix(921.017 0 0 -648.5522 -779750.0625 1005623.1875)">
		<stop  offset="0" style="stop-color:#FFFFFF"/>
		<stop  offset="0" style="stop-color:#FFFFFF"/>
		<stop  offset="0.18" style="stop-color:#E46342"/>
		<stop  offset="0.4" style="stop-color:#C82410"/>
		<stop  offset="0.99" style="stop-color:#A80D00"/>
		<stop  offset="1" style="stop-color:#A80D00"/>
	</linearGradient>
	<path class="st5" d="M341.6,114.4L240.6,32l-28.1,90.9L341.6,114.4L341.6,114.4z"/>
	
		<linearGradient id="SVGID_7_" gradientUnits="userSpaceOnUse" x1="846.2266" y1="1552.6682" x2="846.3278" y2="1552.8154" gradientTransform="matrix(691.0189 0 0 -237.2921 -584547.875 368457.4062)">
		<stop  offset="0" style="stop-color:#FFFFFF"/>
		<stop  offset="0" style="stop-color:#FFFFFF"/>
		<stop  offset="0.54" style="stop-color:#C81F11"/>
		<stop  offset="0.99" style="stop-color:#BF0905"/>
		<stop  offset="1" style="stop-color:#BF0905"/>
	</linearGradient>
	<path class="st6" d="M294.4,2.5L235,35.4L197.5,2.1L294.4,2.5L294.4,2.5z"/>
	
		<linearGradient id="SVGID_8_" gradientUnits="userSpaceOnUse" x1="844.4384" y1="1551.62" x2="844.4708" y2="1551.5388" gradientTransform="matrix(177.4931 0 0 -709.3571 -149873.8906 1100853.875)">
		<stop  offset="0" style="stop-color:#FFFFFF"/>
		<stop  offset="0" style="stop-color:#FFFFFF"/>
		<stop  offset="0.31" style="stop-color:#DE4024"/>
		<stop  offset="0.99" style="stop-color:#BF190B"/>
		<stop  offset="1" style="stop-color:#BF190B"/>
	</linearGradient>
	<path class="st7" d="M1.2,279.6l24.9-45.4L5.9,180.1L1.2,279.6z"/>
	<path class="st8" d="M4.6,178.4l20.3,57.4l88-19.7l100.5-93.4l28.4-90.1L197,1.2l-75.9,28.4c-23.9,22.2-70.3,66.3-72,67.1
		C47.5,97.5,18.5,152.3,4.6,178.4L4.6,178.4z"/>
	
		<linearGradient id="SVGID_9_" gradientUnits="userSpaceOnUse" x1="848.5513" y1="1549.2535" x2="848.7264" y2="1549.434" gradientTransform="matrix(1544.4148 0 0 -1542.2133 -1310546.625 2389553.75)">
		<stop  offset="0" style="stop-color:#BD0012"/>
		<stop  offset="0" style="stop-color:#BD0012"/>
		<stop  offset="7.000000e-02" style="stop-color:#FFFFFF"/>
		<stop  offset="0.17" style="stop-color:#FFFFFF"/>
		<stop  offset="0.27" style="stop-color:#C82F1C"/>
		<stop  offset="0.33" style="stop-color:#820C01"/>
		<stop  offset="0.46" style="stop-color:#A31601"/>
		<stop  offset="0.72" style="stop-color:#B31301"/>
		<stop  offset="0.99" style="stop-color:#E82609"/>
		<stop  offset="1" style="stop-color:#E82609"/>
	</linearGradient>
	<path class="st9" d="M75.7,75.2C127.5,23.9,194.4-6.5,220,19.4c25.6,25.9-1.5,88.7-53.4,140.1C114.8,210.8,48.8,242.9,23.2,217
		C-2.5,191.2,23.9,126.6,75.7,75.2L75.7,75.2z"/>
	
		<linearGradient id="SVGID_10_" gradientUnits="userSpaceOnUse" x1="848.2194" y1="1551.0571" x2="848.1537" y2="1551.0782" gradientTransform="matrix(1240.8304 0 0 -951.1702 -1052320.75 1475621.75)">
		<stop  offset="0" style="stop-color:#8C0C01"/>
		<stop  offset="0" style="stop-color:#8C0C01"/>
		<stop  offset="0.54" style="stop-color:#990C00"/>
		<stop  offset="0.99" style="stop-color:#A80D0E"/>
		<stop  offset="1" style="stop-color:#A80D0E"/>
	</linearGradient>
	<path class="st10" d="M73.4,348.8l40.3-133.4l133.7,43C199,303.7,145.2,342,73.4,348.8L73.4,348.8z"/>
	
		<linearGradient id="SVGID_11_" gradientUnits="userSpaceOnUse" x1="846.9463" y1="1550.2732" x2="846.8674" y2="1550.3361" gradientTransform="matrix(917.9897 0 0 -1031.1821 -777172.4375 1598818.625)">
		<stop  offset="0" style="stop-color:#7E110B"/>
		<stop  offset="0" style="stop-color:#7E110B"/>
		<stop  offset="0.99" style="stop-color:#9E0C00"/>
		<stop  offset="1" style="stop-color:#9E0C00"/>
	</linearGradient>
	<path class="st11" d="M213.5,122.5l34.3,136c40.4-42.5,76.6-88.1,94.4-144.6L213.5,122.5L213.5,122.5z"/>
	
		<linearGradient id="SVGID_12_" gradientUnits="userSpaceOnUse" x1="846.3294" y1="1549.8619" x2="846.2831" y2="1549.9103" gradientTransform="matrix(778.2689 0 0 -798.665 -658329.6875 1237906.25)">
		<stop  offset="0" style="stop-color:#79130D"/>
		<stop  offset="0" style="stop-color:#79130D"/>
		<stop  offset="0.99" style="stop-color:#9E120B"/>
		<stop  offset="1" style="stop-color:#9E120B"/>
	</linearGradient>
	<path class="st12" d="M341.9,114.6c13.7-41.5,16.9-100.9-47.9-112L240.8,32L341.9,114.6z"/>
	<path class="st13" d="M1.2,279c1.9,68.4,51.3,69.4,72.3,70L24.9,235.6L1.2,279z"/>
	
		<radialGradient id="SVGID_13_" cx="846.8561" cy="1552.1554" r="9.753916e-02" gradientTransform="matrix(909.2308 0 0 -475.1044 -769733.125 737576.875)" gradientUnits="userSpaceOnUse">
		<stop  offset="0" style="stop-color:#A80D00"/>
		<stop  offset="0" style="stop-color:#A80D00"/>
		<stop  offset="0.99" style="stop-color:#7E0E08"/>
		<stop  offset="1" style="stop-color:#7E0E08"/>
	</radialGradient>
	<path class="st14" d="M213.7,122.7c31,19.1,93.6,57.4,94.8,58.1c2,1.1,27-42.1,32.6-66.6L213.7,122.7z"/>
	
		<radialGradient id="SVGID_14_" cx="847.5803" cy="1551.7635" r="0.1239" gradientTransform="matrix(951.4143 0 0 -740.6335 -806268.375 1149545.875)" gradientUnits="userSpaceOnUse">
		<stop  offset="0" style="stop-color:#A30C00"/>
		<stop  offset="0" style="stop-color:#A30C00"/>
		<stop  offset="0.99" style="stop-color:#800E08"/>
		<stop  offset="1" style="stop-color:#800E08"/>
	</radialGradient>
	<path class="st15" d="M113.6,215.4l53.8,103.8c31.8-17.3,56.7-38.3,79.6-60.8L113.6,215.4L113.6,215.4z"/>
	
		<linearGradient id="SVGID_15_" gradientUnits="userSpaceOnUse" x1="846.8442" y1="1551.6371" x2="846.7693" y2="1551.7628" gradientTransform="matrix(391.9162 0 0 -792.3398 -331843.875 1229772.5)">
		<stop  offset="0" style="stop-color:#8B2114"/>
		<stop  offset="0" style="stop-color:#8B2114"/>
		<stop  offset="0.43" style="stop-color:#9E100A"/>
		<stop  offset="0.99" style="stop-color:#B3100C"/>
		<stop  offset="1" style="stop-color:#B3100C"/>
	</linearGradient>
	<path class="st16" d="M24.7,235.7l-7.6,90.8c14.4,19.7,34.2,21.4,54.9,19.8C57,309,27,234.2,24.7,235.7z"/>
	
		<linearGradient id="SVGID_16_" gradientUnits="userSpaceOnUse" x1="846.1839" y1="1551.6968" x2="846.2703" y2="1551.6055" gradientTransform="matrix(762.6236 0 0 -318.554 -645046.3125 494317.6562)">
		<stop  offset="0" style="stop-color:#B31000"/>
		<stop  offset="0" style="stop-color:#B31000"/>
		<stop  offset="0.44" style="stop-color:#910F08"/>
		<stop  offset="0.99" style="stop-color:#791C12"/>
		<stop  offset="1" style="stop-color:#791C12"/>
	</linearGradient>
	<path class="st17" d="M240.5,32.2l106.9,15C341.7,23,324.2,7.4,294.3,2.5L240.5,32.2L240.5,32.2z"/>
</g>
</svg>
