<?xml version="1.0" encoding="utf-8"?>
<!-- Generator: Adobe Illustrator 22.1.0, SVG Export Plug-In . SVG Version: 6.00 Build 0)  -->
<svg version="1.1" id="Layer_1" xmlns="http://www.w3.org/2000/svg" xmlns:xlink="http://www.w3.org/1999/xlink" x="0px" y="0px"
	 viewBox="0 0 359.1 269" style="enable-background:new 0 0 359.1 269;" xml:space="preserve">
<style type="text/css">
	.st0{fill:#CF649A;}
</style>
<path class="st0" d="M309.2,154.5c-12.5,0.1-23.4,3.1-32.5,7.6c-3.4-6.7-6.7-12.5-7.3-16.8c-0.6-5-1.4-8.1-0.6-14.2
	c0.8-6,4.3-14.6,4.3-15.3c-0.1-0.6-0.8-3.7-8-3.8s-13.5,1.4-14.2,3.3c-0.7,1.9-2.1,6.2-3,10.7c-1.3,6.6-14.4,29.9-21.9,42.2
	c-2.5-4.8-4.6-9-5-12.3c-0.6-5-1.4-8.1-0.6-14.1c0.8-6,4.3-14.6,4.3-15.3c-0.1-0.6-0.8-3.7-8-3.8c-7.2-0.1-13.5,1.4-14.2,3.3
	c-0.7,1.9-1.5,6.4-3,10.7c-1.5,4.3-19,43.3-23.5,53.4c-2.3,5.2-4.3,9.3-5.8,12.1c-1.5,2.8-0.1,0.2-0.2,0.5c-1.3,2.4-2,3.7-2,3.7v0.1
	c-1,1.8-2,3.4-2.5,3.4c-0.4,0-1.1-4.7,0.1-11.1c2.6-13.5,8.9-34.6,8.8-35.4c0-0.4,1.2-4.1-4.1-6c-5.1-1.9-6.9,1.3-7.4,1.3
	c-0.4,0-0.8,1.1-0.8,1.1s5.7-23.7-10.9-23.7c-10.4,0-24.7,11.3-31.7,21.6c-4.5,2.5-14,7.6-24.1,13.2c-3.9,2.1-7.8,4.3-11.6,6.4
	l-0.8-0.8c-20-21.4-57.1-36.5-55.6-65.2c0.6-10.4,4.2-38,71.2-71.3c54.9-27.3,98.8-19.8,106.4-3.2c10.9,23.8-23.5,68.1-80.5,74.5
	c-21.7,2.5-33.1-6-36-9.1c-3-3.3-3.4-3.4-4.6-2.8c-1.8,1-0.7,3.9,0,5.7c1.7,4.4,8.7,12.3,20.6,16.2c10.4,3.4,35.9,5.3,66.8-6.6
	C206,101.2,233,64.1,225,33.1c-8.1-31.6-60.5-42-110-24.4C85.6,19.2,53.6,35.6,30.6,57.1C3.3,82.6-1,104.9,0.8,114.1
	c6.4,33,51.8,54.5,70.1,70.4c-0.9,0.5-1.8,1-2.5,1.4c-9.1,4.5-43.8,22.6-52.5,41.8c-9.8,21.7,1.5,37.3,9.1,39.4
	c23.4,6.5,47.4-5.2,60.3-24.4c12.9-19.3,11.3-44.3,5.4-55.7l-0.2-0.4l7.1-4.2c4.6-2.7,9.2-5.3,13.2-7.4c-2.2,6.1-3.9,13.3-4.7,23.8
	c-1,12.3,4.1,28.3,10.7,34.6c2.9,2.7,6.4,2.8,8.6,2.8c7.7,0,11.2-6.4,15.1-14c4.8-9.3,9-20.1,9-20.1s-5.3,29.2,9.1,29.2
	c5.3,0,10.5-6.8,12.9-10.3v0.1c0,0,0.1-0.2,0.4-0.7c0.3-0.4,0.6-0.9,0.8-1.3v-0.1c2.1-3.6,6.8-12,13.8-25.8
	c9-17.8,17.7-40.1,17.7-40.1s0.8,5.5,3.4,14.4c1.5,5.3,4.9,11.1,7.5,16.8c-2.1,2.9-3.4,4.6-3.4,4.6l0.1,0.1c-1.7,2.2-3.6,4.6-5.5,7
	c-7.1,8.5-15.7,18.3-16.8,21.1c-1.3,3.3-1.1,5.7,1.5,7.7c1.9,1.4,5.3,1.7,8.8,1.4c6.4-0.4,10.9-2,13.2-3c3.5-1.3,7.5-3.2,11.3-6
	c7-5.2,11.3-12.5,10.9-22.3c-0.2-5.4-2-10.7-4.1-15.8c0.6-0.9,1.3-1.8,1.9-2.8c11.1-16.2,19.6-34,19.6-34s0.8,5.5,3.4,14.4
	c1.3,4.6,4,9.5,6.4,14.4c-10.4,8.5-16.9,18.3-19.1,24.7c-4.1,11.9-0.9,17.3,5.2,18.6c2.7,0.6,6.7-0.7,9.6-2
	c3.6-1.2,8.1-3.2,12.1-6.2c7-5.2,13.7-12.4,13.4-22.1c-0.2-4.5-1.4-8.9-3-13.1c8.8-3.6,20.2-5.7,34.7-4
	c31.2,3.6,37.3,23.1,36.1,31.2c-1.2,8.1-7.7,12.6-9.9,14c-2.2,1.3-2.9,1.8-2.7,2.8c0.3,1.5,1.3,1.4,3.2,1.1
	c2.6-0.4,16.4-6.7,17-21.6C359.9,175.3,341.6,154.3,309.2,154.5L309.2,154.5z M68.7,235.6c-10.3,11.3-24.8,15.6-31,11.9
	c-6.7-3.9-4.1-20.5,8.6-32.4c7.7-7.3,17.7-14,24.3-18.1c1.5-0.9,3.7-2.2,6.4-3.9c0.4-0.3,0.7-0.4,0.7-0.4c0.5-0.3,1.1-0.6,1.6-1
	C84.1,208.8,79.6,223.8,68.7,235.6L68.7,235.6z M144.1,184.4c-3.6,8.8-11.1,31.2-15.7,30c-3.9-1.1-6.3-18.1-0.8-34.9
	c2.8-8.5,8.8-18.6,12.3-22.5c5.7-6.3,11.8-8.4,13.4-5.8C155.1,154.5,146.3,178.9,144.1,184.4z M206.2,214.1
	c-1.5,0.8-2.9,1.3-3.6,0.9c-0.5-0.3,0.6-1.3,0.6-1.3s7.8-8.3,10.9-12.2c1.8-2.2,3.9-4.8,6.1-7.8v0.8
	C220.2,204.6,210.5,211.4,206.2,214.1L206.2,214.1z M254.1,203.2c-1.1-0.8-1-3.4,2.8-11.6c1.5-3.2,4.8-8.6,10.6-13.7
	c0.7,2.1,1.1,4.1,1.1,6C268.5,196.5,259.6,201.2,254.1,203.2z"/>
</svg>
